<!--  <svg width="23" height="19" viewBox="0 0 23 19" fill="none" xmlns="http://www.w3.org/2000/svg">
<path d="M0.59375 9.39629L12.4446 18.2602V0.53064L0.59375 9.39629Z" fill="#545050"/>
<path d="M5.78494 5.55615H0.59375V13.2347H5.78494V5.55615Z" fill="#545050"/>
<path d="M17.0444 17.733C16.7852 17.733 16.538 17.5799 16.4313 17.3248C16.289 16.9847 16.4465 16.5918 16.7852 16.449C19.612 15.2483 21.4395 12.4813 21.4395 9.39626C21.4395 6.31123 19.6137 3.54252 16.7852 2.34184C16.4465 2.19898 16.289 1.80612 16.4313 1.46599C16.5735 1.12585 16.9631 0.967688 17.3035 1.11055C20.6249 2.52041 22.7708 5.77211 22.7708 9.39626C22.7708 13.0204 20.6249 16.2721 17.3035 17.682C17.2205 17.716 17.1307 17.733 17.0444 17.733Z" fill="#545050"/>
<path d="M15.8774 14.9608C15.6182 14.9608 15.371 14.8078 15.2643 14.5527C15.122 14.2126 15.2795 13.8197 15.6182 13.6768C17.3356 12.9489 18.4433 11.267 18.4433 9.39452C18.4433 7.52207 17.334 5.8418 15.6182 5.11221C15.2795 4.96935 15.122 4.5765 15.2643 4.23636C15.4065 3.89622 15.7978 3.73636 16.1365 3.88092C18.3468 4.81969 19.7746 6.98296 19.7746 9.39452C19.7746 11.8061 18.3468 13.9694 16.1365 14.9081C16.0518 14.9455 15.9638 14.9608 15.8774 14.9608Z" fill="#545050"/>
<path d="M14.7326 12.2416C14.4734 12.2416 14.2262 12.0885 14.1195 11.8334C13.9772 11.4933 14.1347 11.1021 14.4735 10.9575C15.1001 10.6922 15.5049 10.0783 15.5049 9.39461C15.5049 8.71094 15.1001 8.0987 14.4735 7.83169C14.1347 7.68883 13.9755 7.29598 14.1195 6.95584C14.2617 6.6157 14.653 6.45584 14.9917 6.6004C16.113 7.07489 16.8362 8.17183 16.8362 9.39461C16.8362 10.6174 16.113 11.7126 14.9917 12.1888C14.907 12.2245 14.819 12.2416 14.7326 12.2416Z" fill="#545050"/>
<path d="M0.59375 9.39629L12.4446 18.2602V0.53064L0.59375 9.39629Z" fill="#2f2f2f"/>
<path d="M5.78494 5.55615H0.59375V13.2347H5.78494V5.55615Z" fill="#2f2f2f"/>
<path d="M17.0444 17.733C16.7852 17.733 16.538 17.5799 16.4313 17.3248C16.289 16.9847 16.4465 16.5918 16.7852 16.449C19.612 15.2483 21.4395 12.4813 21.4395 9.39626C21.4395 6.31123 19.6137 3.54252 16.7852 2.34184C16.4465 2.19898 16.289 1.80612 16.4313 1.46599C16.5735 1.12585 16.9631 0.967688 17.3035 1.11055C20.6249 2.52041 22.7708 5.77211 22.7708 9.39626C22.7708 13.0204 20.6249 16.2721 17.3035 17.682C17.2205 17.716 17.1307 17.733 17.0444 17.733Z" fill="#2f2f2f"/>
<path d="M15.8774 14.9608C15.6182 14.9608 15.371 14.8078 15.2643 14.5527C15.122 14.2126 15.2795 13.8197 15.6182 13.6768C17.3356 12.9489 18.4433 11.267 18.4433 9.39452C18.4433 7.52207 17.334 5.8418 15.6182 5.11221C15.2795 4.96935 15.122 4.5765 15.2643 4.23636C15.4065 3.89622 15.7978 3.73636 16.1365 3.88092C18.3468 4.81969 19.7746 6.98296 19.7746 9.39452C19.7746 11.8061 18.3468 13.9694 16.1365 14.9081C16.0518 14.9455 15.9638 14.9608 15.8774 14.9608Z" fill="#2f2f2f"/>
<path d="M14.7326 12.2416C14.4734 12.2416 14.2262 12.0885 14.1195 11.8334C13.9772 11.4933 14.1347 11.1021 14.4735 10.9575C15.1001 10.6922 15.5049 10.0783 15.5049 9.39461C15.5049 8.71094 15.1001 8.0987 14.4735 7.83169C14.1347 7.68883 13.9755 7.29598 14.1195 6.95584C14.2617 6.6157 14.653 6.45584 14.9917 6.6004C16.113 7.07489 16.8362 8.17183 16.8362 9.39461C16.8362 10.6174 16.113 11.7126 14.9917 12.1888C14.907 12.2245 14.819 12.2416 14.7326 12.2416Z" fill="#2f2f2f"/>
</svg>
 -->
<svg width="28" height="20" viewBox="0 0 28 20" fill="none" xmlns="http://www.w3.org/2000/svg">
<g clip-path="url(#clip0_899_9149)">
<path d="M2 9.99041L15.4228 20V0L2 9.99041Z" fill="#fff"/>
<path d="M20.6191 19.4057C20.3315 19.4057 20.0438 19.2331 19.9288 18.9455C19.7754 18.5619 19.948 18.1209 20.3315 17.9483C23.5338 16.5869 25.6047 13.4804 25.6047 9.99051C25.6047 6.51976 23.5338 3.39416 20.3315 2.0327C19.948 1.8793 19.7754 1.41909 19.9288 1.03558C20.0822 0.652067 20.5232 0.479488 20.9259 0.632892C24.6843 2.22445 27.1196 5.88697 27.1196 9.97134C27.1196 14.0557 24.6843 17.7182 20.9259 19.3098C20.83 19.3865 20.715 19.4057 20.6191 19.4057Z" fill="#fff"/>
<path d="M19.2968 16.28C19.0092 16.28 18.7216 16.1074 18.6065 15.8197C18.4531 15.4362 18.6257 14.9952 19.0092 14.8226C20.9459 13.9981 22.2115 12.0997 22.2115 9.9904C22.2115 7.8811 20.9651 5.98273 19.0092 5.15819C18.6257 5.00478 18.4531 4.54457 18.6065 4.16106C18.7599 3.77756 19.2201 3.60498 19.6036 3.75838C22.0965 4.81303 23.7264 7.24831 23.7264 9.97123C23.7264 12.6941 22.0965 15.1486 19.6036 16.2033C19.5078 16.2608 19.3927 16.28 19.2968 16.28Z" fill="#fff"/>
<path d="M18.0117 13.2119C17.7241 13.2119 17.4364 13.0393 17.3214 12.7517C17.168 12.3682 17.3405 11.9271 17.7241 11.7737C18.4335 11.4669 18.8938 10.7766 18.8938 10.0096C18.8938 9.24258 18.4335 8.55227 17.7241 8.24546C17.3405 8.09205 17.168 7.65102 17.3214 7.26751C17.4748 6.884 17.935 6.71142 18.2993 6.86483C19.5649 7.40174 20.3894 8.62897 20.3894 10.0096C20.3894 11.3902 19.5649 12.6175 18.2993 13.1544C18.2034 13.1927 18.1076 13.2119 18.0117 13.2119Z" fill="#fff"/>
</g>
<path d="M10 5H2C0.895431 5 0 5.89543 0 7V13C0 14.1046 0.895431 15 2 15H10C11.1046 15 12 14.1046 12 13V7C12 5.89543 11.1046 5 10 5Z" fill="#fff"/>
<defs>
<clipPath id="clip0_899_9149">
<rect x="2" width="25.1007" height="20" rx="1" fill="white"/>
</clipPath>
</defs>
</svg>

