<svg width="23" height="19" viewBox="0 0 23 19" fill="none" xmlns="http://www.w3.org/2000/svg">
<path d="M0.59375 9.39629L12.4446 18.2602V0.53064L0.59375 9.39629Z" fill="#619AE0"/>
<path d="M5.78494 5.55615H0.59375V13.2347H5.78494V5.55615Z" fill="#619AE0"/>
<path d="M17.0444 17.733C16.7852 17.733 16.538 17.5799 16.4313 17.3248C16.289 16.9847 16.4465 16.5918 16.7852 16.449C19.612 15.2483 21.4395 12.4813 21.4395 9.39626C21.4395 6.31123 19.6137 3.54252 16.7852 2.34184C16.4465 2.19898 16.289 1.80612 16.4313 1.46599C16.5735 1.12585 16.9631 0.967688 17.3035 1.11055C20.6249 2.52041 22.7708 5.77211 22.7708 9.39626C22.7708 13.0204 20.6249 16.2721 17.3035 17.682C17.2205 17.716 17.1307 17.733 17.0444 17.733Z" fill="#619AE0"/>
<path d="M15.8774 14.9608C15.6182 14.9608 15.371 14.8078 15.2643 14.5527C15.122 14.2126 15.2795 13.8197 15.6182 13.6768C17.3356 12.9489 18.4433 11.267 18.4433 9.39452C18.4433 7.52207 17.334 5.8418 15.6182 5.11221C15.2795 4.96935 15.122 4.5765 15.2643 4.23636C15.4065 3.89622 15.7978 3.73636 16.1365 3.88092C18.3468 4.81969 19.7746 6.98296 19.7746 9.39452C19.7746 11.8061 18.3468 13.9694 16.1365 14.9081C16.0518 14.9455 15.9638 14.9608 15.8774 14.9608Z" fill="#619AE0"/>
<path d="M14.7326 12.2416C14.4734 12.2416 14.2262 12.0885 14.1195 11.8334C13.9772 11.4933 14.1347 11.1021 14.4735 10.9575C15.1001 10.6922 15.5049 10.0783 15.5049 9.39461C15.5049 8.71094 15.1001 8.0987 14.4735 7.83169C14.1347 7.68883 13.9755 7.29598 14.1195 6.95584C14.2617 6.6157 14.653 6.45584 14.9917 6.6004C16.113 7.07489 16.8362 8.17183 16.8362 9.39461C16.8362 10.6174 16.113 11.7126 14.9917 12.1888C14.907 12.2245 14.819 12.2416 14.7326 12.2416Z" fill="#619AE0"/>
<path d="M0.59375 9.39629L12.4446 18.2602V0.53064L0.59375 9.39629Z" fill="#619AE0"/>
<path d="M5.78494 5.55615H0.59375V13.2347H5.78494V5.55615Z" fill="#619AE0"/>
<path d="M17.0444 17.733C16.7852 17.733 16.538 17.5799 16.4313 17.3248C16.289 16.9847 16.4465 16.5918 16.7852 16.449C19.612 15.2483 21.4395 12.4813 21.4395 9.39626C21.4395 6.31123 19.6137 3.54252 16.7852 2.34184C16.4465 2.19898 16.289 1.80612 16.4313 1.46599C16.5735 1.12585 16.9631 0.967688 17.3035 1.11055C20.6249 2.52041 22.7708 5.77211 22.7708 9.39626C22.7708 13.0204 20.6249 16.2721 17.3035 17.682C17.2205 17.716 17.1307 17.733 17.0444 17.733Z" fill="#619AE0"/>
<path d="M15.8774 14.9608C15.6182 14.9608 15.371 14.8078 15.2643 14.5527C15.122 14.2126 15.2795 13.8197 15.6182 13.6768C17.3356 12.9489 18.4433 11.267 18.4433 9.39452C18.4433 7.52207 17.334 5.8418 15.6182 5.11221C15.2795 4.96935 15.122 4.5765 15.2643 4.23636C15.4065 3.89622 15.7978 3.73636 16.1365 3.88092C18.3468 4.81969 19.7746 6.98296 19.7746 9.39452C19.7746 11.8061 18.3468 13.9694 16.1365 14.9081C16.0518 14.9455 15.9638 14.9608 15.8774 14.9608Z" fill="#619AE0"/>
<path d="M14.7326 12.2416C14.4734 12.2416 14.2262 12.0885 14.1195 11.8334C13.9772 11.4933 14.1347 11.1021 14.4735 10.9575C15.1001 10.6922 15.5049 10.0783 15.5049 9.39461C15.5049 8.71094 15.1001 8.0987 14.4735 7.83169C14.1347 7.68883 13.9755 7.29598 14.1195 6.95584C14.2617 6.6157 14.653 6.45584 14.9917 6.6004C16.113 7.07489 16.8362 8.17183 16.8362 9.39461C16.8362 10.6174 16.113 11.7126 14.9917 12.1888C14.907 12.2245 14.819 12.2416 14.7326 12.2416Z" fill="#619AE0"/>
</svg>
