<svg width="29" height="29" viewBox="0 0 29 29" fill="none" xmlns="http://www.w3.org/2000/svg">
<path d="M13.955 25.91C12.3219 25.91 10.7826 25.5975 9.33709 24.9724C7.89936 24.3473 6.62963 23.4838 5.5279 22.3821C4.42616 21.2804 3.56275 20.0106 2.93765 18.5729C2.31255 17.1274 2 15.5881 2 13.955C2 12.3219 2.31255 10.7865 2.93765 9.34881C3.56275 7.90327 4.42226 6.62963 5.51618 5.5279C6.61791 4.42616 7.88764 3.56275 9.32537 2.93765C10.7709 2.31255 12.3102 2 13.9433 2C15.5763 2 17.1157 2.31255 18.5612 2.93765C20.0067 3.56275 21.2804 4.42616 22.3821 5.5279C23.4838 6.62963 24.3473 7.90327 24.9724 9.34881C25.5975 10.7865 25.91 12.3219 25.91 13.955C25.91 15.5881 25.5975 17.1274 24.9724 18.5729C24.3473 20.0106 23.4838 21.2804 22.3821 22.3821C21.2804 23.4838 20.0067 24.3473 18.5612 24.9724C17.1235 25.5975 15.5881 25.91 13.955 25.91ZM16.7328 18.8308L15.1271 17.2133C14.9473 17.2836 14.7559 17.3383 14.5528 17.3774C14.3574 17.4165 14.1582 17.436 13.955 17.436C13.3065 17.436 12.7165 17.2797 12.1852 16.9672C11.6617 16.6468 11.2436 16.2249 10.9311 15.7014C10.6185 15.1778 10.4623 14.5996 10.4623 13.9667C10.4623 13.5448 10.5365 13.1502 10.685 12.7829L8.376 10.4623C7.77434 10.8842 7.25864 11.3218 6.82888 11.775C6.39913 12.2204 6.06704 12.6384 5.83263 13.0291C5.60603 13.4198 5.49274 13.7323 5.49274 13.9667C5.49274 14.2168 5.62557 14.5606 5.89124 14.9981C6.16472 15.4279 6.5515 15.8889 7.05157 16.3812C7.55165 16.8656 8.1494 17.3305 8.84482 17.7759C9.54025 18.2135 10.3177 18.5729 11.1772 18.8542C12.0367 19.1277 12.9627 19.2644 13.955 19.2644C14.4473 19.2644 14.9278 19.2254 15.3966 19.1472C15.8655 19.0613 16.3108 18.9558 16.7328 18.8308ZM13.6854 15.7717L12.1266 14.2246C12.111 14.6231 12.2555 14.9825 12.5603 15.3029C12.8728 15.6232 13.2479 15.7795 13.6854 15.7717ZM17.2133 15.1388L19.534 17.4712C20.1278 17.0492 20.6396 16.6156 21.0694 16.1702C21.4992 15.717 21.8273 15.2951 22.0539 14.9044C22.2883 14.5137 22.4055 14.2011 22.4055 13.9667C22.4055 13.7167 22.2727 13.3768 22.007 12.947C21.7414 12.5173 21.3585 12.0563 20.8584 11.564C20.3662 11.0717 19.7723 10.6068 19.0769 10.1693C18.3815 9.73168 17.6001 9.37225 16.7328 9.09096C15.8733 8.80966 14.9473 8.66901 13.955 8.66901C13.4627 8.66901 12.9822 8.70808 12.5134 8.78622C12.0524 8.86436 11.6109 8.96984 11.1889 9.10268L12.7829 10.7084C12.9627 10.6381 13.1502 10.5873 13.3455 10.556C13.5487 10.517 13.7518 10.4974 13.955 10.4974C14.5957 10.4974 15.1778 10.6537 15.7014 10.9663C16.2249 11.271 16.6429 11.689 16.9555 12.2204C17.268 12.7439 17.4243 13.326 17.4243 13.9667C17.4243 14.373 17.354 14.7637 17.2133 15.1388ZM14.2246 12.15L15.76 13.6737C15.76 13.2752 15.6076 12.9236 15.3029 12.6189C15.0059 12.3063 14.6465 12.15 14.2246 12.15ZM19.6278 20.4365C19.7372 20.5303 19.87 20.581 20.0263 20.5889C20.1825 20.5889 20.3115 20.5381 20.413 20.4365C20.5224 20.3193 20.5771 20.1864 20.5771 20.038C20.5771 19.8895 20.5224 19.7606 20.413 19.6512L8.24707 7.47352C8.13768 7.36412 8.00485 7.30943 7.84857 7.30943C7.70011 7.30943 7.56728 7.36412 7.45007 7.47352C7.3485 7.58291 7.29771 7.71574 7.29771 7.87201C7.29771 8.02048 7.3485 8.1494 7.45007 8.25879L19.6278 20.4365Z" fill="black" fill-opacity="0.85"/>
</svg>
