<svg
        width="111"
        height="124"
        viewBox="0 0 111 124"
        fill="none"
        xmlns="http://www.w3.org/2000/svg"
      >
        <path
          d="M22.5159 43.6131C22.5159 45.0075 23.7541 46.1198 25.2433 46.1198C26.7325 46.1198 27.9435 44.9831 27.9708 43.6131V37.7748C27.9708 36.3804 26.7325 35.2681 25.2433 35.2681C23.7241 35.2681 22.5159 36.4048 22.5159 37.7748V43.6131ZM49.7903 37.981C49.7903 37.2615 50.0777 36.5714 50.5892 36.0627C51.1007 35.5539 51.7944 35.2681 52.5178 35.2681C53.2411 35.2681 53.9349 35.5539 54.4464 36.0627C54.9579 36.5714 55.2452 37.2615 55.2452 37.981V43.4069C55.2452 44.1264 54.9579 44.8164 54.4464 45.3252C53.9349 45.834 53.2411 46.1198 52.5178 46.1198C51.7944 46.1198 51.1007 45.834 50.5892 45.3252C50.0777 44.8164 49.7903 44.1264 49.7903 43.4069V37.981Z"
          fill="#619AE0"
        />
        <path
          d="M34.3802 6.34824C34.4768 6.01649 34.6382 5.70691 34.8551 5.43722C35.072 5.16752 35.3403 4.94299 35.6445 4.77646C35.9487 4.60992 36.2829 4.50464 36.628 4.46664C36.9732 4.42864 37.3224 4.45866 37.6559 4.55499C40.2333 5.29833 42.2162 6.51102 43.4708 8.17948C44.059 8.94741 44.4792 9.82931 44.7042 10.7685C44.9292 11.7076 44.9541 12.6832 44.7772 13.6325C44.1663 16.9585 41.1307 19.9672 37.4322 19.9672C34.9339 19.9672 32.7601 18.9851 31.2409 18.2987C30.9055 18.1495 30.6027 18.0112 30.3354 17.9026C28.7862 17.2732 27.4225 16.9531 25.2706 17.7941C23.375 18.532 22.5104 20.4203 22.7422 23.6432C22.8295 24.8315 23.0641 26.0306 23.3695 27.1429C23.5359 27.1348 23.7077 27.1293 23.8796 27.1293H25.7806C26.8581 27.1291 27.9116 27.4463 28.8081 28.0409L31.5246 29.8423H38.2341C38.7409 29.8425 39.2378 29.7023 39.669 29.4373C40.1002 29.1723 40.4486 28.793 40.6752 28.342L47.2074 15.3498C47.887 13.9982 48.9316 12.8615 50.2241 12.067C51.5165 11.2726 53.0058 10.8518 54.5251 10.8517H59.3363C60.6026 10.8517 61.8439 11.2025 62.9211 11.8647C63.9983 12.5268 64.8688 13.4743 65.4351 14.6009C66.0014 15.7275 66.2411 16.9887 66.1274 18.2432C66.0137 19.4976 65.551 20.6958 64.7912 21.7035H67.0959L70.1098 14.4871C71.7189 10.6347 75.3819 8.13878 79.4076 8.13878H92.183C92.7557 8.13878 93.1703 8.76276 92.9357 9.30534L92.3139 10.8517C91.0156 14.1344 87.95 16.2776 84.5489 16.2776H79.4049C79.0402 16.2866 78.6856 16.3985 78.3824 16.6002C78.0791 16.802 77.8397 17.0852 77.6921 17.417L75.8374 21.7035H85.8471C86.676 21.7036 87.4939 21.8916 88.2388 22.2532C88.9837 22.6148 89.636 23.1406 90.1461 23.7904C90.6561 24.4403 91.0106 25.1973 91.1825 26.0038C91.3545 26.8104 91.3394 27.6453 91.1384 28.4451L90.8056 29.7609C90.5383 30.8271 90.1183 31.8227 89.5701 32.7234H92.5348C94.1167 32.7234 94.9213 34.2047 94.9213 35.7782V39.3376C94.9213 45.6017 90.1019 50.7455 82.9206 51.4617H91.5938C93.5849 51.4617 95.2213 52.574 95.2213 54.5544V64.4621C95.2213 74.6492 89.3819 81.1738 83.0297 81.1738H76.9938C76.5335 82.0563 75.8383 82.7961 74.9841 83.3123C74.1298 83.8285 73.1494 84.1014 72.1499 84.101H35.0075C33.9834 84.1013 32.9926 83.7391 32.2126 83.0791C31.4325 82.4191 30.914 81.5045 30.7499 80.499C30.5859 79.4935 30.787 78.4627 31.3172 77.5912C31.8474 76.7197 32.6722 76.0644 33.6438 75.7425L42.6935 72.742C43.8601 72.3558 44.9242 71.713 45.8067 70.8615C46.6893 70.01 47.3675 68.9715 47.7911 67.8234H31.08C28.8349 67.8232 26.6246 67.2716 24.6453 66.2176C22.666 65.1637 20.979 63.6399 19.7338 61.7817L16.6218 57.1426C15.1283 54.913 14.3321 52.2934 14.3335 49.6142V36.6246C14.3335 33.4234 15.9263 30.5938 18.3647 28.8738C17.9003 27.2907 17.6005 25.6643 17.4701 24.0203C17.1837 20.0649 18.1165 14.9347 23.3395 12.8973C27.1579 11.4079 29.9918 12.0834 32.3319 13.0329C32.9401 13.2825 33.4583 13.5104 33.922 13.7139C35.2939 14.3189 36.1749 14.7095 37.4322 14.7095C38.2423 14.7095 39.3605 13.8604 39.576 12.6911C39.6227 12.4539 39.6169 12.2094 39.559 11.9747C39.5011 11.74 39.3924 11.5206 39.2405 11.3319C38.8669 10.8354 38.0186 10.1328 36.1858 9.60377C35.5128 9.40969 34.9448 8.95774 34.6068 8.34726C34.2687 7.73678 34.1855 7.01775 34.3802 6.34824ZM54.5279 16.2776C54.0215 16.2779 53.5252 16.4184 53.0945 16.6833C52.6639 16.9483 52.3159 17.3273 52.0895 17.7778L45.4073 31.0658H45.3909L44.6545 32.4223C44.1865 33.2835 43.493 34.0028 42.6474 34.5038C41.8018 35.0048 40.8357 35.2689 39.8515 35.2682H31.5246C30.4471 35.2684 29.3936 34.9512 28.4971 34.3566L25.7806 32.5552H23.8796C22.7945 32.5552 21.7539 32.984 20.9867 33.7471C20.2194 34.5103 19.7884 35.5454 19.7884 36.6246V49.6169C19.7889 50.2669 19.8676 50.9144 20.0229 51.5458H47.0628L44.0054 54.587C43.2454 55.3431 42.3431 55.9429 41.3501 56.3521C40.357 56.7613 39.2926 56.9718 38.2177 56.9717H23.0668L24.275 58.7731C25.0219 59.8875 26.0338 60.8014 27.2208 61.4337C28.4079 62.0659 29.7335 62.397 31.08 62.3975H49.5421C49.7821 62.3975 50.0194 62.4192 50.2458 62.4572L50.3412 62.3975H56.0525C57.5581 62.5115 60.1846 63.6835 58.6518 67.4463C57.0235 71.4398 53.906 76.5482 51.8331 78.6752H72.1472L74.2037 69.4647C74.2909 69.0768 74.3346 68.6834 74.3346 68.2873V41.592C74.3346 40.6086 74.0659 39.6437 73.5572 38.8004L73.0145 37.9024C72.3617 36.82 71.3499 35.9978 70.1534 35.5774C69.4524 35.3333 68.8797 34.731 68.8797 33.9931C68.8797 33.6117 69.032 33.246 69.3031 32.9764C69.5742 32.7067 69.9418 32.5552 70.3252 32.5552H80.2204C81.4368 32.555 82.6183 32.1504 83.577 31.4057C84.5357 30.661 85.2167 29.619 85.5116 28.4451L85.8417 27.1293H53.2978C53.1816 27.1291 53.0674 27.0994 52.9661 27.0429C52.8647 26.9865 52.7795 26.9052 52.7186 26.8068C52.6577 26.7085 52.623 26.5962 52.618 26.4808C52.6129 26.3654 52.6375 26.2506 52.6896 26.1473L55.207 21.1392C55.5317 20.4934 56.0308 19.9503 56.6484 19.5708C57.266 19.1913 57.9776 18.9904 58.7036 18.9905H59.3363C59.698 18.9905 60.0449 18.8476 60.3006 18.5932C60.5564 18.3388 60.7001 17.9938 60.7001 17.6341C60.7001 17.2743 60.5564 16.9293 60.3006 16.6749C60.0449 16.4205 59.698 16.2776 59.3363 16.2776H54.5251H54.5279Z"
          fill="#619AE0"
        />
        <path
          d="M5.96487 106.012C5.6724 106.012 5.41474 105.901 5.1919 105.678C4.96907 105.441 4.85765 105.107 4.85765 104.675C4.85765 104.243 4.96907 103.916 5.1919 103.693C5.42867 103.47 5.70025 103.359 6.00666 103.359H9.39101V103.317C9.39101 102.788 9.37708 102.447 9.34923 102.294C9.32137 102.126 9.22388 102.022 9.05675 101.98L8.9523 101.959C8.7991 101.959 8.68071 102.043 8.59715 102.21C8.55537 102.28 8.51358 102.314 8.4718 102.314C8.44395 102.314 8.42306 102.301 8.40913 102.273C8.3952 102.245 8.3952 102.203 8.40913 102.147C8.45091 102.008 8.55537 101.876 8.7225 101.75C8.88962 101.611 9.04979 101.514 9.20299 101.458C9.62081 101.319 10.1152 101.249 10.6863 101.249C11.1737 101.249 11.5567 101.305 11.8353 101.416C12.2392 101.569 12.4968 101.771 12.6082 102.022C12.7197 102.259 12.7754 102.691 12.7754 103.317V103.359H14.5093C15.3032 103.359 15.8324 103.352 16.097 103.338C16.2642 103.338 16.3547 103.275 16.3686 103.15C16.3826 103.122 16.3826 103.094 16.3686 103.067C16.3686 103.025 16.3686 102.997 16.3686 102.983C16.3686 102.955 16.3756 102.941 16.3895 102.941C16.4313 102.941 16.487 102.99 16.5566 103.087C16.6402 103.171 16.7168 103.275 16.7864 103.401C16.9675 103.749 17.058 104.111 17.058 104.487C17.058 105.002 16.9397 105.385 16.7029 105.636C16.48 105.887 16.0344 106.012 15.3659 106.012H5.96487ZM5.9022 109.919C5.9022 109.306 6.11111 108.756 6.52893 108.268C6.96068 107.767 7.55956 107.377 8.32557 107.099C9.1055 106.82 10.0038 106.681 11.0205 106.681C12.0372 106.681 12.5734 106.994 12.6291 107.621C13.3673 107.593 14.0219 107.683 14.5929 107.892C15.1639 108.101 15.6026 108.401 15.909 108.791C16.2294 109.167 16.3895 109.592 16.3895 110.065C16.3895 111.068 15.9438 111.841 15.0525 112.384C14.1751 112.927 12.9007 113.199 11.2294 113.199C9.61385 113.199 8.3186 112.913 7.34368 112.342C6.3827 111.757 5.9022 110.949 5.9022 109.919ZM7.38547 115.518C7.38547 115.156 7.5526 114.863 7.88685 114.64C8.23504 114.417 8.65286 114.306 9.14032 114.306C9.82276 114.306 10.3102 114.487 10.6027 114.849C12.9146 114.403 14.9829 114.181 16.8073 114.181C17.5316 114.181 18.2976 114.229 19.1054 114.327C19.8992 114.424 20.5051 114.661 20.9229 115.037C21.3407 115.399 21.5496 115.887 21.5496 116.5C21.5496 117.224 21.3616 117.906 20.9856 118.547C21.0413 118.575 21.1248 118.63 21.2362 118.714C21.4312 118.881 21.5775 119.097 21.675 119.362C21.7864 119.626 21.8421 119.891 21.8421 120.155C21.8421 120.225 21.8282 120.343 21.8003 120.511C21.7585 120.692 21.6819 120.831 21.5705 120.928C21.4591 121.026 21.3268 121.075 21.1736 121.075L20.0872 121.054C19.5023 121.04 18.7015 121.04 17.6848 121.054C16.682 121.082 15.7906 121.116 15.0107 121.158L14.1124 121.221C13.9035 121.235 13.5553 121.256 13.0678 121.284C12.5804 121.311 12.1486 121.325 11.7726 121.325C10.7837 121.325 9.98292 121.249 9.37012 121.096C8.75731 120.956 8.26986 120.657 7.90774 120.197C7.55956 119.752 7.38547 119.083 7.38547 118.192V115.518ZM9.22388 109.898C9.22388 110.149 9.44672 110.351 9.8924 110.504C10.3381 110.657 10.8952 110.734 11.5637 110.734C13.3325 110.734 14.2168 110.358 14.2168 109.605C14.2168 109.076 13.6458 108.7 12.5038 108.477C12.3367 108.923 12.0233 109.146 11.5637 109.146C10.8673 109.146 10.3033 109.209 9.8715 109.334C9.43976 109.445 9.22388 109.633 9.22388 109.898ZM10.8325 117.857C10.8325 118.373 11.0762 118.714 11.5637 118.881C12.0233 119.034 12.6709 119.111 13.5066 119.111C14.384 119.111 15.1361 119.062 15.7628 118.965C16.4034 118.853 17.1137 118.707 17.8937 118.526C17.9912 118.164 18.0399 117.871 18.0399 117.649C18.0399 117.426 17.9912 117.252 17.8937 117.126C17.8101 116.987 17.6291 116.883 17.3505 116.813C16.7934 116.674 15.9996 116.604 14.9689 116.604C14.2726 116.604 13.5553 116.639 12.8171 116.708C12.079 116.778 11.4174 116.876 10.8325 117.001V117.857ZM16.6402 102.607C16.6959 102.412 16.8282 102.231 17.0371 102.064C17.2461 101.897 17.4898 101.764 17.7683 101.667C18.1304 101.528 18.597 101.458 19.168 101.458C19.7251 101.458 20.1847 101.535 20.5468 101.688C20.9786 101.869 21.2571 102.147 21.3825 102.523C21.5078 102.886 21.5705 103.422 21.5705 104.132V107.161H21.9883C22.6151 107.161 23.0747 107.133 23.3671 107.078C23.4925 107.05 23.583 107.022 23.6387 106.994C23.7084 106.952 23.7432 106.89 23.7432 106.806C23.7432 106.695 23.7641 106.639 23.8059 106.639C23.8755 106.639 23.9521 106.757 24.0357 106.994C24.2167 107.537 24.3072 108.018 24.3072 108.436C24.3072 108.923 24.168 109.313 23.8894 109.605C23.6248 109.884 23.1652 110.002 22.5106 109.961L21.5705 109.898V112.405C21.5705 112.767 21.4173 113.08 21.1109 113.345C20.8184 113.596 20.3867 113.721 19.8157 113.721C19.2725 113.721 18.8477 113.589 18.5413 113.324C18.2488 113.046 18.1026 112.725 18.1026 112.363V103.505C18.1026 103.074 18.0678 102.746 17.9981 102.523C17.9285 102.287 17.7683 102.168 17.5176 102.168C17.3784 102.168 17.2391 102.224 17.0998 102.335C16.9745 102.447 16.8839 102.565 16.8282 102.691C16.7864 102.746 16.7447 102.774 16.7029 102.774C16.675 102.774 16.6541 102.76 16.6402 102.732C16.6263 102.704 16.6263 102.663 16.6402 102.607ZM28.4637 103.15C28.9651 103.15 29.3203 103.185 29.5292 103.255C29.752 103.31 29.9609 103.457 30.1559 103.693C30.2813 103.86 30.3579 104.097 30.3857 104.404C30.4275 104.71 30.4414 105.093 30.4275 105.553C30.3439 108.449 30.1211 110.81 29.759 112.635C29.3969 114.459 28.8328 115.768 28.0668 116.562C27.8022 116.827 27.5167 117.029 27.2103 117.168C26.9178 117.293 26.6184 117.356 26.312 117.356C25.9638 117.356 25.6713 117.272 25.4345 117.105C25.1421 116.91 24.9749 116.611 24.9331 116.207V116.04C24.9331 115.901 24.9471 115.782 24.9749 115.685C25.0028 115.573 25.0306 115.525 25.0585 115.539C25.0724 115.552 25.1003 115.671 25.1421 115.894C25.1978 116.103 25.3858 116.207 25.7061 116.207C25.9707 116.207 26.1797 116.082 26.3329 115.831C26.4861 115.566 26.6114 115.183 26.7089 114.682C27.1546 112.523 27.3774 109.738 27.3774 106.326C27.3774 106.172 27.3565 106.075 27.3147 106.033C27.2729 105.991 27.1755 105.97 27.0223 105.97H26.3955C25.8384 105.97 25.5599 105.49 25.5599 104.529C25.5599 104.055 25.6365 103.707 25.7897 103.484C25.9568 103.262 26.1588 103.15 26.3955 103.15H28.4637ZM29.4038 116.896C29.4038 116.743 29.4178 116.618 29.4456 116.52C29.4735 116.409 29.5013 116.36 29.5292 116.374C29.5431 116.388 29.571 116.506 29.6127 116.729C29.6685 116.938 29.8426 117.043 30.135 117.043C30.525 117.043 30.8384 116.674 31.0751 115.935C31.3537 115.114 31.5904 113.86 31.7854 112.175C31.9943 110.476 32.0988 108.498 32.0988 106.242C32.0988 106.089 32.0779 105.991 32.0361 105.95C31.9943 105.908 31.8968 105.887 31.7436 105.887H31.4094C30.8941 105.887 30.6364 105.406 30.6364 104.445C30.6364 103.972 30.706 103.624 30.8453 103.401C30.9985 103.178 31.1865 103.067 31.4094 103.067H33.2478C33.7492 103.067 34.1043 103.101 34.3132 103.171C34.5361 103.227 34.745 103.373 34.94 103.61C35.121 103.846 35.2116 104.313 35.2116 105.009C35.2116 105.525 35.1837 106.242 35.128 107.161L35.1071 107.725H35.2116H36.5486V104.007C36.5486 103.589 36.5277 103.262 36.4859 103.025C36.4581 102.788 36.3815 102.67 36.2561 102.67C36.1447 102.67 36.0333 102.781 35.9219 103.004C35.8801 103.06 35.8453 103.087 35.8174 103.087C35.7895 103.087 35.7687 103.074 35.7547 103.046C35.7408 103.018 35.7408 102.976 35.7547 102.92C35.8801 102.558 36.1308 102.301 36.5068 102.147C36.855 102.008 37.2032 101.938 37.5514 101.938C37.9553 101.938 38.3243 102.022 38.6586 102.189C39.0207 102.37 39.2575 102.649 39.3689 103.025C39.4803 103.387 39.536 103.923 39.536 104.633V119.132C39.536 119.494 39.4107 119.8 39.16 120.051C38.9093 120.316 38.5402 120.448 38.0527 120.448C37.5653 120.448 37.1892 120.316 36.9246 120.051C36.6739 119.786 36.5486 119.466 36.5486 119.09V110.546H35.2533C35.0862 110.546 34.9609 110.511 34.8773 110.441C34.4595 113.825 33.6726 116.13 32.5166 117.356C32.2659 117.621 31.9874 117.823 31.681 117.962C31.3885 118.087 31.096 118.15 30.8035 118.15C30.4275 118.15 30.1141 118.059 29.8634 117.878C29.571 117.655 29.4178 117.37 29.4038 117.022V116.896ZM39.5987 102.607C39.7519 102.133 40.0165 101.82 40.3925 101.667C40.7686 101.528 41.1377 101.458 41.4998 101.458C41.9037 101.458 42.2588 101.535 42.5652 101.688C42.9273 101.869 43.1641 102.147 43.2755 102.523C43.3869 102.886 43.4426 103.422 43.4426 104.132V119.654C43.4426 120.016 43.3173 120.323 43.0666 120.573C42.8159 120.838 42.4538 120.97 41.9803 120.97C41.4928 120.97 41.1168 120.838 40.8521 120.573C40.5875 120.309 40.4552 119.988 40.4552 119.612V103.505C40.4552 102.614 40.3577 102.168 40.1627 102.168C40.0374 102.168 39.8981 102.342 39.7449 102.691C39.731 102.746 39.7031 102.774 39.6614 102.774C39.6335 102.774 39.6126 102.76 39.5987 102.732C39.5848 102.704 39.5848 102.663 39.5987 102.607ZM47.4738 103.798C47.4738 103.338 47.634 102.962 47.9543 102.67C48.2746 102.377 48.7064 102.231 49.2495 102.231H59.3399C60.1338 102.231 60.663 102.224 60.9276 102.21C61.0948 102.21 61.1853 102.147 61.1992 102.022C61.2132 101.994 61.2132 101.966 61.1992 101.938C61.1992 101.897 61.1992 101.869 61.1992 101.855C61.1992 101.827 61.2062 101.813 61.2201 101.813C61.2619 101.813 61.3176 101.862 61.3873 101.959C61.4708 102.043 61.5474 102.147 61.6171 102.273C61.7981 102.621 61.8886 102.983 61.8886 103.359C61.8886 103.819 61.7703 104.167 61.5335 104.404C61.3107 104.626 60.865 104.738 60.1965 104.738H50.9417V105.385C50.9417 105.567 50.9765 105.692 51.0462 105.762C51.1158 105.831 51.3038 105.873 51.6102 105.887C52.3345 105.915 53.0656 105.929 53.8038 105.929C54.8483 105.929 55.9765 105.915 57.1881 105.887C58.4138 105.845 59.3817 105.803 60.092 105.762C60.2034 105.748 60.3636 105.741 60.5725 105.741C60.8928 105.741 61.1644 105.782 61.3873 105.866C61.6101 105.936 61.826 106.061 62.0349 106.242C62.3691 106.562 62.5363 106.966 62.5363 107.454C62.5363 107.649 62.5223 107.795 62.4945 107.892C62.4109 108.268 62.1533 108.443 61.7215 108.415L60.0502 108.352C59.4513 108.324 57.8427 108.31 55.2244 108.31C53.1771 108.31 51.8888 108.317 51.3595 108.331L50.691 108.352C50.12 108.352 49.6465 108.31 49.2704 108.227C48.9083 108.143 48.595 107.997 48.3303 107.788C47.9821 107.509 47.7523 107.196 47.6409 106.848C47.5295 106.5 47.4738 105.95 47.4738 105.197V103.798ZM45.8861 110.462C45.8861 110.058 45.9975 109.752 46.2203 109.543C46.4432 109.32 46.7148 109.209 47.0351 109.209H62.1811C62.78 109.209 63.0794 109.055 63.0794 108.749C63.0794 108.582 63.0237 108.47 62.9123 108.415C62.8148 108.359 62.7661 108.331 62.7661 108.331C62.7661 108.317 62.787 108.31 62.8287 108.31C63.1769 108.31 63.4346 108.505 63.6017 108.895C63.7131 109.174 63.7688 109.557 63.7688 110.044C63.7688 110.643 63.6365 111.075 63.3719 111.339C63.1073 111.59 62.6268 111.715 61.9304 111.715H47.0351C46.7148 111.715 46.4432 111.611 46.2203 111.402C45.9975 111.179 45.8861 110.866 45.8861 110.462ZM47.4111 114.16C47.4111 113.756 47.5295 113.463 47.7663 113.282C48.003 113.087 48.3512 112.976 48.8108 112.948C49.5072 112.92 50.5309 112.892 51.8818 112.864C53.2467 112.837 54.5907 112.823 55.9138 112.823C58.0586 112.823 59.4513 112.858 60.092 112.927C60.9137 112.997 61.5196 113.15 61.9095 113.387C62.2995 113.624 62.5014 114.041 62.5154 114.64C62.5154 115.169 62.2716 115.678 61.7842 116.165C62.2159 116.305 62.4318 116.604 62.4318 117.064C62.4318 117.467 62.3065 117.753 62.0558 117.92C61.8051 118.087 61.4499 118.171 60.9903 118.171H51.4013C51.2203 118.171 51.0949 118.192 51.0253 118.233C50.9696 118.275 50.9417 118.373 50.9417 118.526C50.9417 118.665 51.0114 118.77 51.1506 118.839C51.3038 118.895 51.5754 118.937 51.9654 118.965C52.3553 118.979 52.8219 118.993 53.3651 119.006L54.3261 119.027L55.684 119.048C57.787 119.048 59.3956 118.993 60.5098 118.881C60.8441 118.853 61.0808 118.811 61.2201 118.756C61.3733 118.686 61.4499 118.603 61.4499 118.505C61.4499 118.422 61.429 118.359 61.3873 118.317C61.3733 118.303 61.3803 118.296 61.4081 118.296C61.436 118.282 61.4708 118.282 61.5126 118.296C61.6797 118.338 61.8399 118.401 61.9931 118.484C62.4945 118.791 62.7452 119.188 62.7452 119.675C62.7452 120.121 62.592 120.476 62.2856 120.74C61.9931 121.019 61.4221 121.186 60.5725 121.242C59.3887 121.325 57.7104 121.367 55.5378 121.367C53.755 121.367 52.3345 121.339 51.276 121.284C50.3985 121.242 49.6883 121.13 49.1451 120.949C48.6019 120.782 48.1911 120.483 47.9125 120.051C47.634 119.633 47.4947 119.041 47.4947 118.275C47.4947 116.799 48.1911 116.061 49.5838 116.061H59.0057L59.0892 115.789C59.131 115.594 59.0823 115.448 58.943 115.351C58.8037 115.253 58.567 115.197 58.2327 115.183C57.9959 115.169 57.1951 115.162 55.8302 115.162C54.5211 115.162 53.1562 115.176 51.7356 115.204C50.3289 115.218 49.3749 115.239 48.8735 115.267C47.8986 115.337 47.4111 114.968 47.4111 114.16ZM76.616 111.172C76.5882 113.429 76.1077 115.128 75.1745 116.27C74.2414 117.398 72.9392 117.962 71.2679 117.962C70.3209 117.962 69.4434 117.732 68.6356 117.272C67.8278 116.799 67.1663 116.061 66.651 115.058C66.1357 114.041 65.8432 112.76 65.7736 111.214C65.7596 111.047 65.7527 110.803 65.7527 110.483C65.7527 108.589 66.066 107.071 66.6928 105.929C67.3334 104.787 68.1412 103.972 69.1161 103.484C69.6593 103.22 70.0562 103.046 70.3069 102.962C70.5715 102.879 70.9337 102.837 71.3933 102.837C71.7554 102.837 72.0409 102.962 72.2498 103.213C72.4587 103.463 72.5701 103.805 72.5841 104.236C72.5841 104.334 72.5771 104.411 72.5632 104.466C73.3988 104.411 74.1578 104.738 74.8403 105.448C75.5227 106.158 76.0171 107.14 76.3236 108.394C76.4628 108.366 76.5673 108.352 76.6369 108.352H79.7497V103.505C79.7497 103.087 79.7079 102.76 79.6243 102.523C79.5547 102.287 79.3945 102.168 79.1438 102.168C79.0046 102.168 78.8653 102.224 78.726 102.335C78.6007 102.447 78.5102 102.565 78.4544 102.691C78.4127 102.746 78.3709 102.774 78.3291 102.774C78.3012 102.774 78.2803 102.76 78.2664 102.732C78.2525 102.704 78.2525 102.663 78.2664 102.607C78.3221 102.412 78.4544 102.231 78.6634 102.064C78.8723 101.897 79.116 101.764 79.3945 101.667C79.7567 101.528 80.2232 101.458 80.7942 101.458C81.3513 101.458 81.8109 101.535 82.1731 101.688C82.6048 101.869 82.8833 102.147 83.0087 102.523C83.134 102.886 83.1967 103.422 83.1967 104.132V119.654C83.1967 120.016 83.0505 120.323 82.758 120.573C82.4795 120.838 82.0616 120.97 81.5045 120.97C80.9474 120.97 80.5157 120.838 80.2093 120.573C79.9029 120.309 79.7497 119.988 79.7497 119.612V111.172H76.6787H76.616ZM69.1997 110.566C69.1997 112.001 69.3947 113.073 69.7846 113.784C70.1746 114.494 70.7108 114.849 71.3933 114.849C72.0757 114.849 72.6328 114.508 73.0645 113.825C73.4963 113.129 73.74 112.085 73.7957 110.692C73.8097 110.497 73.8166 110.197 73.8166 109.793C73.8166 108.596 73.6982 107.572 73.4615 106.723C73.2386 105.859 72.8626 105.33 72.3334 105.135C72.208 105.358 72.0409 105.476 71.832 105.49C71.5813 105.518 71.3515 105.58 71.1426 105.678C70.9337 105.762 70.6969 105.943 70.4323 106.221C69.6106 107.085 69.1997 108.533 69.1997 110.566ZM89.4841 101.291H91.9284V103.965H89.4841V101.291ZM86.1415 102.837H95.25V104.926H86.1415V102.837ZM85.8282 107.078H95.5634V109.167H85.8282V107.078ZM87.6875 112.802H93.6414V114.41H87.6875V112.802ZM87.6875 115.392H93.6414V116.98H87.6875V115.392ZM87.2697 105.093L89.2334 104.633C89.5259 105.365 89.7975 106.326 89.9228 106.952L87.8755 107.475C87.7919 106.848 87.5203 105.824 87.2697 105.093ZM92.1164 104.592L94.3308 105.072C93.9548 105.95 93.6205 106.785 93.349 107.391L91.4479 106.931C91.6986 106.263 91.991 105.26 92.1164 104.592ZM86.8309 110.086H93.725V111.841H89.1707V120.866H86.8309V110.086ZM92.3671 110.086H94.8113V118.463C94.8113 119.508 94.6442 120.114 93.9548 120.469C93.2445 120.845 92.3671 120.866 91.1972 120.866C91.0718 120.218 90.7167 119.278 90.4242 118.693C91.0927 118.735 91.8239 118.735 92.0328 118.714C92.2835 118.714 92.3671 118.651 92.3671 118.422V110.086ZM97.3392 102.691H105.027V104.717H97.3392V102.691ZM97.3392 111.569H104.254V113.032H97.3392V111.569ZM97.4854 113.867H104.15V115.33H97.4854V113.867ZM97.2138 116.186H104.359V117.628H97.2138V116.186ZM96.3991 101.291H98.8433V107.099H96.3991V101.291ZM96.3991 105.866H104.233V110.754H96.3991V108.895H101.831V107.725H96.3991V105.866ZM96.3991 109.835H98.8433V117.837C98.8433 118.63 98.9895 118.756 99.8461 118.756C100.222 118.756 101.977 118.756 102.457 118.756C103.147 118.756 103.293 118.463 103.377 117.147C103.899 117.502 104.839 117.837 105.508 117.983C105.236 120.114 104.588 120.761 102.687 120.761C102.165 120.761 100.013 120.761 99.47 120.761C97.1093 120.761 96.3991 120.176 96.3991 117.878V109.835Z"
          fill="#619AE0"
        />
      </svg>