<svg
                    width="24"
                    height="24"
                    viewBox="0 0 24 24"
                    fill="none"
                    xmlns="http://www.w3.org/2000/svg"
                  >
                    <path
                      d="M12.041 23.981C18.5801 23.981 23.9941 18.5669 23.9941 12.0278C23.9941 5.50049 18.5684 0.074707 12.0293 0.074707C5.50195 0.074707 0.0878906 5.50049 0.0878906 12.0278C0.0878906 18.5669 5.51368 23.981 12.041 23.981Z"
                      fill="#619ae0"
                    />
                    <path
                      d="M12.041 16.9849C7.43555 16.9849 4.14258 13.2114 4.14258 12.0396C4.14258 10.856 7.40039 7.09424 12.041 7.09424C16.6817 7.09424 19.9277 10.856 19.9277 12.0396C19.9277 13.2114 16.6934 16.9849 12.041 16.9849ZM12.041 15.2739C13.834 15.2739 15.2871 13.7974 15.2871 12.0396C15.2871 10.2349 13.834 8.8052 12.041 8.8052C10.2363 8.8052 8.78316 10.2349 8.79496 12.0396C8.79496 13.7974 10.2363 15.2739 12.041 15.2739ZM12.0527 13.4692C11.2793 13.4692 10.6113 12.7896 10.6113 12.0396C10.6113 11.2778 11.2793 10.6099 12.0527 10.6099C12.8145 10.6099 13.4707 11.2778 13.4707 12.0396C13.4707 12.7896 12.8145 13.4692 12.0527 13.4692Z"
                      fill="white"
                    />
                  </svg>