<svg
width="24"
height="24"
viewBox="0 0 24 24"
fill="none"
xmlns="http://www.w3.org/2000/svg"
>
<path
    d="M11.955 23.91C10.3219 23.91 8.7826 23.5975 7.33709 22.9724C5.89936 22.3473 4.62963 21.4838 3.5279 20.3821C2.42616 19.2804 1.56275 18.0106 0.93765 16.5729C0.31255 15.1274 0 13.5881 0 11.955C0 10.3219 0.31255 8.7865 0.93765 7.34881C1.56275 5.90327 2.42226 4.62963 3.51618 3.5279C4.61791 2.42616 5.88764 1.56275 7.32537 0.93765C8.7709 0.31255 10.3102 0 11.9433 0C13.5763 0 15.1157 0.31255 16.5612 0.93765C18.0067 1.56275 19.2804 2.42616 20.3821 3.5279C21.4838 4.62963 22.3473 5.90327 22.9724 7.34881C23.5975 8.7865 23.91 10.3219 23.91 11.955C23.91 13.5881 23.5975 15.1274 22.9724 16.5729C22.3473 18.0106 21.4838 19.2804 20.3821 20.3821C19.2804 21.4838 18.0067 22.3473 16.5612 22.9724C15.1235 23.5975 13.5881 23.91 11.955 23.91ZM14.7328 16.8308L13.1271 15.2133C12.9473 15.2836 12.7559 15.3383 12.5528 15.3774C12.3574 15.4165 12.1582 15.436 11.955 15.436C11.3065 15.436 10.7165 15.2797 10.1852 14.9672C9.6617 14.6468 9.2436 14.2249 8.9311 13.7014C8.6185 13.1778 8.4623 12.5996 8.4623 11.9667C8.4623 11.5448 8.5365 11.1502 8.685 10.7829L6.376 8.4623C5.77434 8.8842 5.25864 9.3218 4.82888 9.775C4.39913 10.2204 4.06704 10.6384 3.83263 11.0291C3.60603 11.4198 3.49274 11.7323 3.49274 11.9667C3.49274 12.2168 3.62557 12.5606 3.89124 12.9981C4.16472 13.4279 4.5515 13.8889 5.05157 14.3812C5.55165 14.8656 6.1494 15.3305 6.84482 15.7759C7.54025 16.2135 8.3177 16.5729 9.1772 16.8542C10.0367 17.1277 10.9627 17.2644 11.955 17.2644C12.4473 17.2644 12.9278 17.2254 13.3966 17.1472C13.8655 17.0613 14.3108 16.9558 14.7328 16.8308ZM11.6854 13.7717L10.1266 12.2246C10.111 12.6231 10.2555 12.9825 10.5603 13.3029C10.8728 13.6232 11.2479 13.7795 11.6854 13.7717ZM15.2133 13.1388L17.534 15.4712C18.1278 15.0492 18.6396 14.6156 19.0694 14.1702C19.4992 13.717 19.8273 13.2951 20.0539 12.9044C20.2883 12.5137 20.4055 12.2011 20.4055 11.9667C20.4055 11.7167 20.2727 11.3768 20.007 10.947C19.7414 10.5173 19.3585 10.0563 18.8584 9.564C18.3662 9.0717 17.7723 8.6068 17.0769 8.1693C16.3815 7.73168 15.6001 7.37225 14.7328 7.09096C13.8733 6.80966 12.9473 6.66901 11.955 6.66901C11.4627 6.66901 10.9822 6.70808 10.5134 6.78622C10.0524 6.86436 9.6109 6.96984 9.1889 7.10268L10.7829 8.7084C10.9627 8.6381 11.1502 8.5873 11.3455 8.556C11.5487 8.517 11.7518 8.4974 11.955 8.4974C12.5957 8.4974 13.1778 8.6537 13.7014 8.9663C14.2249 9.271 14.6429 9.689 14.9555 10.2204C15.268 10.7439 15.4243 11.326 15.4243 11.9667C15.4243 12.373 15.354 12.7637 15.2133 13.1388ZM12.2246 10.15L13.76 11.6737C13.76 11.2752 13.6076 10.9236 13.3029 10.6189C13.0059 10.3063 12.6465 10.15 12.2246 10.15ZM17.6278 18.4365C17.7372 18.5303 17.87 18.581 18.0263 18.5889C18.1825 18.5889 18.3115 18.5381 18.413 18.4365C18.5224 18.3193 18.5771 18.1864 18.5771 18.038C18.5771 17.8895 18.5224 17.7606 18.413 17.6512L6.24707 5.47352C6.13768 5.36412 6.00485 5.30943 5.84857 5.30943C5.70011 5.30943 5.56728 5.36412 5.45007 5.47352C5.3485 5.58291 5.29771 5.71574 5.29771 5.87201C5.29771 6.02048 5.3485 6.1494 5.45007 6.25879L17.6278 18.4365Z"
    fill="#619ae0"
/>
</svg>