<svg width="20" height="25" viewBox="0 0 20 25" fill="none" xmlns="http://www.w3.org/2000/svg">
<path d="M5.79512 10.9061C4.75214 11.7061 4.7513 13.2776 5.79342 14.0787L16.7813 22.5255C18.0966 23.5366 20.0002 22.5989 20.0002 20.9399V4.06493C20.0002 2.40686 18.0986 1.46887 16.783 2.47801L5.79512 10.9061Z" fill="#fff"/>
<path d="M1.99904 24.9897H3.12695C4.23152 24.9897 5.12695 24.0943 5.12695 22.9897L5.12695 1.99999C5.12695 0.895418 4.23152 -1.33514e-05 3.12695 -1.33514e-05H1.99904C0.894474 -1.33514e-05 -0.000956059 0.895418 -0.000956059 1.99999L-0.000956059 22.9897C-0.000956059 24.0943 0.894474 24.9897 1.99904 24.9897Z" fill="#fff"/>
</svg>
