<svg width="38" height="25" viewBox="0 0 39 30" fill="none" xmlns="http://www.w3.org/2000/svg">
<g clip-path="url(#clip0_896_9076)">
<path d="M28.6777 29.9999L38.6121 24.287L28.6777 18.5459V29.9999Z" fill="#fff"/>
<path d="M30.3659 26.2005C23.2176 26.2005 19.4184 21.557 15.7317 17.0542C11.7917 12.2136 8.04878 7.65454 0 7.65454V3.82715C9.87805 3.82715 14.5497 9.56824 18.6867 14.6339C22.0638 18.799 24.9906 22.3731 30.3377 22.3731V26.2005H30.3659Z" fill="#fff"/>
<path d="M0 26.2005V22.3731C8.04878 22.3731 11.7917 17.814 15.7317 12.9735C19.3902 8.47068 23.1895 3.82715 30.3659 3.82715V7.65454C25.0188 7.65454 22.0919 11.2286 18.7148 15.3938C14.5497 20.4594 9.87805 26.2005 0 26.2005Z" fill="#fff"/>
<path d="M28.6777 11.454L38.6121 5.74109L28.6777 0V11.454Z" fill="#fff"/>
</g>
<defs>
<clipPath id="clip0_896_9076">
<rect width="38.6116" height="30" fill="white"/>
</clipPath>
</defs>
</svg>
