<svg width="161" height="33" viewBox="0 0 161 33" fill="none" xmlns="http://www.w3.org/2000/svg">
<path d="M2.45458 8.16295C1.99099 8.16295 1.5826 7.98635 1.22939 7.63314C0.87618 7.25786 0.699576 6.72805 0.699576 6.04371C0.699576 5.35937 0.87618 4.84059 1.22939 4.48739C1.60467 4.13418 2.03514 3.95757 2.5208 3.95757H7.88514V3.89135C7.88514 3.05248 7.86307 2.51163 7.81892 2.2688C7.77476 2.0039 7.62024 1.83833 7.35533 1.7721L7.18976 1.73899C6.94693 1.73899 6.75929 1.87144 6.62684 2.13635C6.56061 2.24673 6.49439 2.30192 6.42816 2.30192C6.38401 2.30192 6.3509 2.27984 6.32882 2.23569C6.30675 2.19154 6.30675 2.12531 6.32882 2.03701C6.39505 1.81626 6.56061 1.60654 6.82552 1.40786C7.09042 1.1871 7.34429 1.03258 7.58712 0.944274C8.24939 0.72352 9.03307 0.613143 9.93816 0.613143C10.7108 0.613143 11.3179 0.701444 11.7594 0.878047C12.3996 1.12088 12.808 1.44097 12.9846 1.83833C13.1612 2.21361 13.2495 2.89795 13.2495 3.89135V3.95757H15.9979C17.2562 3.95757 18.095 3.94654 18.5145 3.92446C18.7794 3.92446 18.9229 3.82512 18.945 3.62644C18.967 3.58229 18.967 3.53814 18.945 3.49399C18.945 3.42776 18.945 3.38361 18.945 3.36154C18.945 3.31739 18.956 3.29531 18.9781 3.29531C19.0443 3.29531 19.1326 3.37258 19.243 3.5271C19.3754 3.65956 19.4968 3.82512 19.6072 4.0238C19.8942 4.57569 20.0377 5.14965 20.0377 5.74569C20.0377 6.56248 19.85 7.16956 19.4748 7.56692C19.1216 7.96427 18.4151 8.16295 17.3555 8.16295H2.45458ZM2.35524 14.3551C2.35524 13.3838 2.68637 12.5118 3.34863 11.7392C4.03297 10.9445 4.98222 10.3263 6.19637 9.88484C7.43259 9.44333 8.85646 9.22258 10.468 9.22258C12.0795 9.22258 12.9294 9.71927 13.0177 10.7127C14.1877 10.6685 15.2252 10.812 16.1303 11.1431C17.0354 11.4743 17.7308 11.9489 18.2165 12.567C18.7242 13.163 18.9781 13.8363 18.9781 14.5869C18.9781 16.1763 18.2717 17.4015 16.8588 18.2625C15.4681 19.1234 13.4482 19.5539 10.7991 19.5539C8.23835 19.5539 6.18533 19.1013 4.64005 18.1963C3.11684 17.2691 2.35524 15.9887 2.35524 14.3551ZM4.70627 23.2295C4.70627 22.6555 4.97118 22.1919 5.50099 21.8387C6.05288 21.4855 6.71514 21.3089 7.48778 21.3089C8.56948 21.3089 9.34212 21.5959 9.80571 22.1698C13.4702 21.4634 16.7484 21.1102 19.6403 21.1102C20.7883 21.1102 22.0024 21.1875 23.2828 21.342C24.5411 21.4965 25.5014 21.8718 26.1636 22.4679C26.8259 23.0418 27.157 23.8145 27.157 24.7858C27.157 25.9337 26.859 27.0154 26.263 28.0309C26.3513 28.075 26.4837 28.1633 26.6603 28.2958C26.9694 28.5607 27.2012 28.9029 27.3557 29.3223C27.5323 29.7417 27.6206 30.1612 27.6206 30.5806C27.6206 30.691 27.5985 30.8786 27.5544 31.1435C27.4882 31.4305 27.3667 31.6513 27.1901 31.8058C27.0135 31.9603 26.8038 32.0376 26.561 32.0376L24.8391 32.0045C23.9119 31.9824 22.6426 31.9824 21.0311 32.0045C19.4417 32.0486 18.0288 32.1038 16.7926 32.17L15.3687 32.2694C15.0376 32.2914 14.4857 32.3246 13.7131 32.3687C12.9404 32.4129 12.2561 32.4349 11.66 32.4349C10.0927 32.4349 8.82335 32.3135 7.85203 32.0707C6.88071 31.8499 6.10807 31.3753 5.5341 30.6468C4.98222 29.9404 4.70627 28.8808 4.70627 27.468V23.2295ZM7.62024 14.322C7.62024 14.7194 7.97344 15.0395 8.67986 15.2823C9.38627 15.5251 10.2693 15.6465 11.3289 15.6465C14.1325 15.6465 15.5343 15.0505 15.5343 13.8584C15.5343 13.0196 14.6292 12.4235 12.819 12.0703C12.5541 12.7767 12.0574 13.1299 11.3289 13.1299C10.2251 13.1299 9.33109 13.2293 8.64675 13.428C7.96241 13.6046 7.62024 13.9026 7.62024 14.322ZM10.17 26.9381C10.17 27.7549 10.5563 28.2958 11.3289 28.5607C12.0574 28.8035 13.0839 28.9249 14.4084 28.9249C15.7992 28.9249 16.9913 28.8477 17.9847 28.6931C19.0001 28.5165 20.126 28.2847 21.3622 27.9978C21.5167 27.4238 21.594 26.9602 21.594 26.607C21.594 26.2538 21.5167 25.9779 21.3622 25.7792C21.2298 25.5584 20.9428 25.3929 20.5013 25.2825C19.6183 25.0617 18.36 24.9513 16.7264 24.9513C15.6226 24.9513 14.4857 25.0065 13.3157 25.1169C12.1457 25.2273 11.0971 25.3818 10.17 25.5805V26.9381ZM19.3754 2.7655C19.4637 2.45644 19.6734 2.16946 20.0046 1.90456C20.3357 1.63965 20.722 1.42993 21.1635 1.27541C21.7375 1.05465 22.477 0.944274 23.3821 0.944274C24.2651 0.944274 24.9936 1.06569 25.5676 1.30852C26.2519 1.5955 26.6934 2.03701 26.8921 2.63305C27.0908 3.20701 27.1901 4.05691 27.1901 5.18276V9.98418H27.8524C28.8458 9.98418 29.5743 9.94003 30.0379 9.85173C30.2366 9.80758 30.38 9.76342 30.4683 9.71927C30.5787 9.65305 30.6339 9.55371 30.6339 9.42125C30.6339 9.24465 30.667 9.15635 30.7333 9.15635C30.8436 9.15635 30.965 9.34399 31.0975 9.71927C31.3845 10.5802 31.528 11.3418 31.528 12.0041C31.528 12.7767 31.3072 13.3948 30.8657 13.8584C30.4463 14.2999 29.7178 14.4876 28.6802 14.4213L27.1901 14.322V18.2956C27.1901 18.8696 26.9473 19.3663 26.4617 19.7857C25.9981 20.183 25.3137 20.3817 24.4086 20.3817C23.5477 20.3817 22.8744 20.172 22.3887 19.7526C21.9251 19.3111 21.6933 18.8033 21.6933 18.2294V4.18937C21.6933 3.50503 21.6382 2.98625 21.5278 2.63305C21.4174 2.25776 21.1635 2.07012 20.7662 2.07012C20.5454 2.07012 20.3247 2.15842 20.1039 2.33503C19.9052 2.51163 19.7617 2.69927 19.6734 2.89795C19.6072 2.98625 19.541 3.03041 19.4748 3.03041C19.4306 3.03041 19.3975 3.00833 19.3754 2.96418C19.3533 2.92003 19.3533 2.8538 19.3754 2.7655ZM38.1162 3.62644C38.9109 3.62644 39.4738 3.68163 39.805 3.79201C40.1582 3.88031 40.4893 4.1121 40.7984 4.48739C40.9971 4.75229 41.1185 5.12757 41.1626 5.61324C41.2288 6.0989 41.2509 6.70597 41.2288 7.43446C41.0964 12.0262 40.7432 15.768 40.1692 18.6598C39.5953 21.5517 38.7012 23.6268 37.4871 24.8851C37.0676 25.3046 36.6151 25.6247 36.1294 25.8454C35.6658 26.0441 35.1912 26.1434 34.7055 26.1434C34.1537 26.1434 33.6901 26.011 33.3148 25.7461C32.8512 25.437 32.5863 24.9624 32.5201 24.3222V24.0573C32.5201 23.8365 32.5421 23.6489 32.5863 23.4944C32.6305 23.3178 32.6746 23.2405 32.7188 23.2626C32.7408 23.2847 32.785 23.4723 32.8512 23.8255C32.9395 24.1566 33.2375 24.3222 33.7453 24.3222C34.1647 24.3222 34.4958 24.1235 34.7387 23.7262C34.9815 23.3067 35.1802 22.6997 35.3347 21.9049C36.0411 18.4832 36.3943 14.0681 36.3943 8.65965C36.3943 8.41682 36.3612 8.26229 36.295 8.19607C36.2288 8.12984 36.0742 8.09673 35.8314 8.09673H34.838C33.955 8.09673 33.5135 7.33512 33.5135 5.81192C33.5135 5.06135 33.6349 4.50946 33.8777 4.15626C34.1426 3.80305 34.4627 3.62644 34.838 3.62644H38.1162ZM39.6063 25.4149C39.6063 25.1721 39.6284 24.9734 39.6725 24.8189C39.7167 24.6423 39.7608 24.565 39.805 24.5871C39.8271 24.6092 39.8712 24.7968 39.9374 25.15C40.0257 25.4812 40.3017 25.6467 40.7653 25.6467C41.3834 25.6467 41.8801 25.0617 42.2554 23.8917C42.6969 22.5893 43.0721 20.6025 43.3812 17.9313C43.7123 15.2381 43.8779 12.1034 43.8779 8.5272C43.8779 8.28437 43.8448 8.12984 43.7786 8.06361C43.7123 7.99739 43.5578 7.96427 43.315 7.96427H42.7852C41.9684 7.96427 41.56 7.20267 41.56 5.67946C41.56 4.9289 41.6704 4.37701 41.8911 4.0238C42.1339 3.67059 42.432 3.49399 42.7852 3.49399H45.6991C46.4938 3.49399 47.0568 3.54918 47.3879 3.65956C47.7411 3.74786 48.0722 3.97965 48.3813 4.35493C48.6683 4.73022 48.8118 5.46975 48.8118 6.57352C48.8118 7.39031 48.7676 8.5272 48.6793 9.98418L48.6462 10.8782H48.8118H50.931V4.98408C50.931 4.32182 50.8979 3.80305 50.8317 3.42776C50.7875 3.05248 50.6661 2.86484 50.4674 2.86484C50.2908 2.86484 50.1142 3.04144 49.9376 3.39465C49.8714 3.48295 49.8162 3.5271 49.7721 3.5271C49.7279 3.5271 49.6948 3.50503 49.6727 3.46088C49.6506 3.41673 49.6506 3.3505 49.6727 3.2622C49.8714 2.68824 50.2688 2.27984 50.8648 2.03701C51.4167 1.81626 51.9686 1.70588 52.5204 1.70588C53.1606 1.70588 53.7456 1.83833 54.2754 2.10324C54.8494 2.39022 55.2247 2.83173 55.4013 3.42776C55.5779 4.00173 55.6662 4.85163 55.6662 5.97748V28.958C55.6662 29.532 55.4675 30.0177 55.0702 30.415C54.6728 30.8345 54.0878 31.0442 53.3152 31.0442C52.5425 31.0442 51.9465 30.8345 51.5271 30.415C51.1297 29.9956 50.931 29.4879 50.931 28.8918V15.3485H48.878C48.6131 15.3485 48.4144 15.2933 48.282 15.183C47.6197 20.5473 46.3724 24.2008 44.5402 26.1434C44.1428 26.5629 43.7013 26.883 43.2156 27.1037C42.7521 27.3024 42.2885 27.4017 41.8249 27.4017C41.2288 27.4017 40.7321 27.2582 40.3348 26.9713C39.8712 26.618 39.6284 26.1655 39.6063 25.6136V25.4149ZM55.7655 2.7655C56.0084 2.01493 56.4278 1.51824 57.0238 1.27541C57.6199 1.05465 58.2049 0.944274 58.7788 0.944274C59.419 0.944274 59.982 1.06569 60.4676 1.30852C61.0416 1.5955 61.4169 2.03701 61.5935 2.63305C61.7701 3.20701 61.8584 4.05691 61.8584 5.18276V29.7859C61.8584 30.3598 61.6597 30.8455 61.2623 31.2429C60.865 31.6623 60.291 31.872 59.5404 31.872C58.7678 31.872 58.1718 31.6623 57.7523 31.2429C57.3329 30.8234 57.1232 30.3157 57.1232 29.7197V4.18937C57.1232 2.77654 56.9687 2.07012 56.6596 2.07012C56.4609 2.07012 56.2402 2.34607 55.9973 2.89795C55.9753 2.98625 55.9311 3.03041 55.8649 3.03041C55.8207 3.03041 55.7876 3.00833 55.7655 2.96418C55.7435 2.92003 55.7435 2.8538 55.7655 2.7655ZM68.2479 4.65295C68.2479 3.92446 68.5018 3.32842 69.0095 2.86484C69.5173 2.40126 70.2016 2.16946 71.0626 2.16946H87.0562C88.3145 2.16946 89.1534 2.15842 89.5728 2.13635C89.8377 2.13635 89.9812 2.03701 90.0033 1.83833C90.0254 1.79418 90.0254 1.75003 90.0033 1.70588C90.0033 1.63965 90.0033 1.5955 90.0033 1.57343C90.0033 1.52927 90.0143 1.5072 90.0364 1.5072C90.1026 1.5072 90.1909 1.58446 90.3013 1.73899C90.4338 1.87144 90.5552 2.03701 90.6656 2.23569C90.9525 2.78758 91.096 3.36154 91.096 3.95757C91.096 4.68607 90.9084 5.23795 90.5331 5.61324C90.1799 5.96644 89.4735 6.14305 88.4139 6.14305H73.7447V7.16956C73.7447 7.45654 73.7999 7.65522 73.9103 7.76559C74.0207 7.87597 74.3187 7.9422 74.8043 7.96427C75.9523 8.00842 77.1112 8.0305 78.2812 8.0305C79.9369 8.0305 81.725 8.00842 83.6456 7.96427C85.5882 7.89805 87.1225 7.83182 88.2483 7.76559C88.4249 7.74352 88.6788 7.73248 89.0099 7.73248C89.5176 7.73248 89.9481 7.79871 90.3013 7.93116C90.6545 8.04154 90.9967 8.24022 91.3278 8.5272C91.8576 9.03493 92.1225 9.67512 92.1225 10.4478C92.1225 10.7568 92.1005 10.9886 92.0563 11.1431C91.9239 11.7392 91.5155 12.0151 90.8311 11.971L88.1821 11.8716C87.2328 11.8275 84.6831 11.8054 80.5329 11.8054C77.2878 11.8054 75.2459 11.8164 74.407 11.8385L73.3474 11.8716C72.4423 11.8716 71.6917 11.8054 71.0957 11.673C70.5217 11.5405 70.025 11.3087 69.6056 10.9776C69.0537 10.5361 68.6894 10.0394 68.5128 9.48748C68.3362 8.93559 68.2479 8.06361 68.2479 6.87154V4.65295ZM65.7313 15.2161C65.7313 14.5759 65.9079 14.0902 66.2611 13.7591C66.6143 13.4059 67.0448 13.2293 67.5526 13.2293H91.5596C92.5089 13.2293 92.9835 12.9864 92.9835 12.5008C92.9835 12.2359 92.8952 12.0593 92.7186 11.971C92.5641 11.8827 92.4868 11.8385 92.4868 11.8385C92.4868 11.8164 92.5199 11.8054 92.5861 11.8054C93.138 11.8054 93.5464 12.1145 93.8113 12.7326C93.9879 13.1741 94.0762 13.7812 94.0762 14.5538C94.0762 15.503 93.8665 16.1874 93.4471 16.6068C93.0276 17.0042 92.266 17.2029 91.1623 17.2029H67.5526C67.0448 17.2029 66.6143 17.0373 66.2611 16.7062C65.9079 16.353 65.7313 15.8563 65.7313 15.2161ZM68.1486 21.0771C68.1486 20.4369 68.3362 19.9733 68.7115 19.6863C69.0868 19.3773 69.6387 19.2007 70.3672 19.1565C71.4709 19.1124 73.0935 19.0682 75.2348 19.0241C77.3982 18.9799 79.5285 18.9579 81.6257 18.9579C85.0253 18.9579 87.2328 19.013 88.2483 19.1234C89.5508 19.2338 90.511 19.4766 91.1292 19.8519C91.7473 20.2272 92.0674 20.8895 92.0894 21.8387C92.0894 22.6776 91.7031 23.4833 90.9305 24.256C91.6148 24.4767 91.957 24.9513 91.957 25.6798C91.957 26.32 91.7583 26.7726 91.3609 27.0375C90.9636 27.3024 90.4007 27.4348 89.6722 27.4348H74.4732C74.1862 27.4348 73.9876 27.468 73.8772 27.5342C73.7889 27.6004 73.7447 27.7549 73.7447 27.9978C73.7447 28.2185 73.8551 28.3841 74.0759 28.4945C74.3187 28.5828 74.7492 28.649 75.3673 28.6931C75.9854 28.7152 76.7249 28.7373 77.5859 28.7594L79.1091 28.7925L81.2614 28.8256C84.5948 28.8256 87.1445 28.7373 88.9106 28.5607C89.4404 28.5165 89.8157 28.4503 90.0364 28.362C90.2792 28.2516 90.4007 28.1192 90.4007 27.9647C90.4007 27.8322 90.3676 27.7329 90.3013 27.6666C90.2792 27.6446 90.2903 27.6335 90.3344 27.6335C90.3786 27.6114 90.4338 27.6114 90.5 27.6335C90.7649 27.6997 91.0188 27.7991 91.2616 27.9315C92.0563 28.4172 92.4537 29.0463 92.4537 29.819C92.4537 30.5254 92.2109 31.0883 91.7252 31.5078C91.2616 31.9493 90.3565 32.2142 89.0099 32.3025C87.1335 32.4349 84.4734 32.5012 81.0296 32.5012C78.204 32.5012 75.9523 32.457 74.2745 32.3687C72.8838 32.3025 71.7579 32.1259 70.897 31.8389C70.036 31.574 69.3848 31.0994 68.9433 30.415C68.5018 29.7528 68.281 28.8146 68.281 27.6004C68.281 25.2604 69.3848 24.0904 71.5924 24.0904H86.5264L86.6589 23.6599C86.7251 23.3509 86.6478 23.1191 86.4271 22.9646C86.2063 22.81 85.831 22.7217 85.3012 22.6997C84.9259 22.6776 83.6566 22.6665 81.4932 22.6665C79.4181 22.6665 77.2547 22.6886 75.003 22.7328C72.7734 22.7548 71.2612 22.788 70.4665 22.8321C68.9212 22.9425 68.1486 22.3575 68.1486 21.0771ZM114.44 16.3419C114.395 19.9181 113.634 22.6113 112.155 24.4215C110.676 26.2097 108.612 27.1037 105.963 27.1037C104.461 27.1037 103.071 26.7395 101.79 26.011C100.51 25.2604 99.4613 24.0904 98.6446 22.501C97.8278 20.8895 97.3642 18.8585 97.2538 16.4081C97.2317 16.1432 97.2207 15.7569 97.2207 15.2492C97.2207 12.2469 97.7174 9.84069 98.7108 8.0305C99.7263 6.22031 101.007 4.9289 102.552 4.15626C103.413 3.73682 104.042 3.46088 104.439 3.32842C104.859 3.19597 105.433 3.12975 106.161 3.12975C106.735 3.12975 107.188 3.32842 107.519 3.72578C107.85 4.12314 108.027 4.66399 108.049 5.34833C108.049 5.50286 108.038 5.62427 108.016 5.71258C109.34 5.62427 110.543 6.14305 111.625 7.2689C112.707 8.39475 113.49 9.95107 113.976 11.9379C114.197 11.8937 114.362 11.8716 114.473 11.8716H119.407V4.18937C119.407 3.5271 119.34 3.00833 119.208 2.63305C119.097 2.25776 118.844 2.07012 118.446 2.07012C118.225 2.07012 118.005 2.15842 117.784 2.33503C117.585 2.51163 117.442 2.69927 117.354 2.89795C117.287 2.98625 117.221 3.03041 117.155 3.03041C117.111 3.03041 117.078 3.00833 117.055 2.96418C117.033 2.92003 117.033 2.8538 117.055 2.7655C117.144 2.45644 117.354 2.16946 117.685 1.90456C118.016 1.63965 118.402 1.42993 118.844 1.27541C119.418 1.05465 120.157 0.944274 121.062 0.944274C121.945 0.944274 122.674 1.06569 123.248 1.30852C123.932 1.5955 124.374 2.03701 124.572 2.63305C124.771 3.20701 124.87 4.05691 124.87 5.18276V29.7859C124.87 30.3598 124.638 30.8455 124.175 31.2429C123.733 31.6623 123.071 31.872 122.188 31.872C121.305 31.872 120.621 31.6623 120.135 31.2429C119.649 30.8234 119.407 30.3157 119.407 29.7197V16.3419H114.539H114.44ZM102.684 15.3816C102.684 17.6554 102.993 19.3552 103.612 20.4811C104.23 21.6069 105.08 22.1698 106.161 22.1698C107.243 22.1698 108.126 21.629 108.81 20.5473C109.495 19.4435 109.881 17.7879 109.969 15.5803C109.991 15.2713 110.002 14.7966 110.002 14.1564C110.002 12.258 109.815 10.6354 109.439 9.2888C109.086 7.92012 108.49 7.08126 107.651 6.7722C107.453 7.12541 107.188 7.31305 106.857 7.33512C106.459 7.37927 106.095 7.47861 105.764 7.63314C105.433 7.76559 105.057 8.05258 104.638 8.49408C103.336 9.86276 102.684 12.1586 102.684 15.3816ZM134.836 0.679368H138.71V4.91786H134.836V0.679368ZM129.538 3.12975H143.975V6.44107H129.538V3.12975ZM129.041 9.85173H144.472V13.163H129.041V9.85173ZM131.988 18.9247H141.426V21.4745H131.988V18.9247ZM131.988 23.0308H141.426V25.5474H131.988V23.0308ZM131.326 6.70597L134.439 5.97748C134.902 7.13644 135.333 8.65965 135.531 9.65305L132.286 10.4809C132.154 9.48748 131.723 7.86493 131.326 6.70597ZM139.008 5.91125L142.518 6.67286C141.922 8.06361 141.392 9.38814 140.962 10.3484L137.949 9.61993C138.346 8.56031 138.81 6.97088 139.008 5.91125ZM130.631 14.62H141.558V17.4015H134.339V31.7064H130.631V14.62ZM139.406 14.62H143.28V27.8984C143.28 29.5541 143.015 30.5144 141.922 31.0773C140.796 31.6733 139.406 31.7064 137.551 31.7064C137.353 30.6799 136.79 29.1898 136.326 28.2627C137.386 28.3289 138.545 28.3289 138.876 28.2958C139.273 28.2958 139.406 28.1964 139.406 27.8322V14.62ZM147.287 2.89795H159.472V6.10993H147.287V2.89795ZM147.287 16.9711H158.247V19.289H147.287V16.9711ZM147.518 20.6135H158.081V22.9314H147.518V20.6135ZM147.088 24.2891H158.413V26.5739H147.088V24.2891ZM145.796 0.679368H149.671V9.88484H145.796V0.679368ZM145.796 7.93116H158.214V15.6797H145.796V12.7326H154.406V10.8782H145.796V7.93116ZM145.796 14.2227H149.671V26.905C149.671 28.1633 149.903 28.362 151.26 28.362C151.856 28.362 154.638 28.362 155.399 28.362C156.492 28.362 156.724 27.8984 156.856 25.8123C157.684 26.3752 159.174 26.905 160.234 27.1368C159.803 30.5144 158.777 31.5409 155.764 31.5409C154.936 31.5409 151.525 31.5409 150.664 31.5409C146.922 31.5409 145.796 30.6137 145.796 26.9713V14.2227Z" fill="#619AE0"/>
</svg>
