<svg width="1480" height="1233" viewBox="0 0 1480 1233" fill="none" xmlns="http://www.w3.org/2000/svg">
<g clip-path="url(#clip0_688_8844)">
<path opacity="0.62" d="M560.998 1233C870.828 1233 1122 1218.01 1122 1199.53C1122 1181.04 870.828 1166.05 560.998 1166.05C251.167 1166.05 0 1181.04 0 1199.53C0 1218.01 251.167 1233 560.998 1233Z" fill="#A8A8A8"/>
<path d="M13.7891 889.484V1004.3C13.7891 1015.31 22.7962 1024.27 33.7492 1024.27H1088.3C1099.31 1024.27 1108.26 1015.31 1108.26 1004.3V889.484H13.7891Z" fill="#F0F0F0"/>
<path d="M1108.21 255.441C1108.21 244.487 1099.26 235.479 1088.25 235.479H33.7492C22.7962 235.479 13.7891 244.432 13.7891 255.441V889.484H1108.26V255.441H1108.21Z" fill="#534B62"/>
<path d="M751.538 1024.27H375.074V1139.87H751.538V1024.27Z" fill="#D6D6D6"/>
<path d="M836.826 1139.81H284.613V1193.91H836.826V1139.81Z" fill="#F0F0F0"/>
<path d="M751.538 1024.27H375.074V1066.02H751.538V1024.27Z" fill="#BDBDBD"/>
<path d="M1051.83 292.417H70.334V830.989H1051.83V292.417Z" fill="#619AE0"/>
<path d="M1457.76 0H962.925C950.638 0 940.686 9.95296 940.686 22.2413V341.848C940.686 354.137 950.638 364.089 962.925 364.089H1020.19L963.815 470.959L1154.08 364.089H1457.76C1470.05 364.089 1480 354.137 1480 341.848V22.2413C1480 9.95296 1469.99 0 1457.76 0Z" fill="white"/>
<path d="M1094.36 205.009C1092.86 205.009 1091.64 204.453 1090.53 203.396C1089.47 202.34 1088.91 201.061 1088.91 199.56V175.261H1026.75C1025.25 175.261 1024.03 174.705 1022.92 173.649C1021.86 172.592 1021.3 171.313 1021.3 169.812V155.689C1021.3 153.798 1021.75 152.186 1022.58 150.796C1023.47 149.406 1024.47 147.904 1025.7 146.292L1087.08 69.6708C1089.75 66.3346 1092.47 64.6665 1095.31 64.6665H1110.54C1111.99 64.6665 1113.27 65.2225 1114.38 66.279C1115.43 67.3355 1115.99 68.6143 1115.99 70.1156V150.351H1133.23C1134.67 150.351 1135.95 150.907 1137.06 151.963C1138.12 153.02 1138.67 154.299 1138.67 155.8V170.034C1138.67 171.48 1138.12 172.759 1137.06 173.871C1136.01 174.928 1134.73 175.484 1133.23 175.484H1115.99V199.782C1115.99 201.283 1115.43 202.507 1114.38 203.619C1113.32 204.675 1112.04 205.231 1110.54 205.231H1094.36V205.009ZM1088.97 150.24V107.314L1054.66 150.24H1088.97Z" fill="#414042"/>
<path d="M1264.5 116.989C1264.66 119.547 1264.72 122.327 1264.72 125.441C1264.72 128.499 1264.72 131.668 1264.72 134.893C1264.72 138.118 1264.72 141.232 1264.72 144.346C1264.72 147.404 1264.66 150.24 1264.5 152.797C1264.11 160.526 1262.94 167.755 1260.99 174.371C1259.05 180.988 1255.99 186.771 1251.76 191.608C1247.54 196.501 1242.09 200.282 1235.31 203.063C1228.58 205.787 1220.29 207.177 1210.56 207.177C1200.67 207.177 1192.38 205.787 1185.71 203.063C1179.04 200.338 1173.59 196.501 1169.37 191.608C1165.14 186.715 1162.08 180.988 1160.14 174.371C1158.19 167.755 1157.02 160.582 1156.63 152.797C1156.36 147.737 1156.24 141.955 1156.24 135.449C1156.24 128.944 1156.36 123.161 1156.63 118.101C1157.02 110.372 1158.19 103.088 1160.14 96.3601C1162.08 89.6321 1165.14 83.7382 1169.37 78.7895C1173.59 73.8408 1179.04 69.9486 1185.71 67.0573C1192.38 64.1659 1200.67 62.7202 1210.56 62.7202C1220.29 62.7202 1228.58 64.1103 1235.31 66.8349C1242.03 69.5594 1247.54 73.396 1251.76 78.2891C1255.99 83.1822 1259.05 88.9093 1260.99 95.5261C1262.88 102.032 1264.05 109.204 1264.5 116.989ZM1183.65 151.685C1184.32 161.305 1186.66 168.755 1190.6 174.038C1194.55 179.32 1201.17 181.989 1210.56 181.989C1219.91 181.989 1226.58 179.376 1230.52 174.038C1234.47 168.755 1236.81 161.305 1237.47 151.685C1237.75 146.625 1237.86 141.009 1237.86 134.838C1237.86 128.666 1237.7 123.05 1237.47 117.99C1236.81 108.37 1234.47 100.92 1230.52 95.6373C1226.58 90.355 1219.91 87.686 1210.56 87.686C1201.17 87.686 1194.55 90.355 1190.6 95.6373C1186.66 100.92 1184.32 108.37 1183.65 117.99C1183.38 123.105 1183.27 128.721 1183.27 134.838C1183.21 140.954 1183.38 146.57 1183.65 151.685Z" fill="#414042"/>
<path d="M1354.96 205.009C1353.45 205.009 1352.23 204.453 1351.12 203.396C1350.06 202.34 1349.51 201.061 1349.51 199.56V175.261H1287.35C1285.85 175.261 1284.62 174.705 1283.51 173.649C1282.45 172.592 1281.9 171.313 1281.9 169.812V155.689C1281.9 153.798 1282.34 152.186 1283.18 150.796C1284.07 149.406 1285.07 147.904 1286.29 146.292L1347.67 69.6708C1350.34 66.3346 1353.07 64.6665 1355.9 64.6665H1371.14C1372.64 64.6665 1373.86 65.2225 1374.97 66.279C1376.03 67.3355 1376.58 68.6143 1376.58 70.1156V150.351H1393.82C1395.27 150.351 1396.54 150.907 1397.66 151.963C1398.71 153.02 1399.27 154.299 1399.27 155.8V170.034C1399.27 171.48 1398.71 172.759 1397.66 173.871C1396.6 174.928 1395.32 175.484 1393.82 175.484H1376.58V199.782C1376.58 201.283 1376.03 202.507 1374.97 203.619C1373.92 204.675 1372.64 205.231 1371.14 205.231H1354.96V205.009ZM1349.51 150.24V107.314L1315.2 150.24H1349.51Z" fill="#414042"/>
<path d="M1105.2 288.191C1105.76 288.191 1106.26 288.413 1106.7 288.802C1107.15 289.192 1107.32 289.692 1107.32 290.304V293.139C1107.32 293.695 1107.09 294.196 1106.7 294.641C1106.26 295.03 1105.82 295.252 1105.2 295.252H1073.46C1072.9 295.252 1072.4 295.03 1071.96 294.641C1071.57 294.196 1071.34 293.695 1071.34 293.139V242.429C1071.34 241.873 1071.57 241.373 1071.96 240.928C1072.4 240.539 1072.9 240.316 1073.46 240.316H1104.54C1105.09 240.316 1105.59 240.539 1106.04 240.928C1106.48 241.373 1106.65 241.873 1106.65 242.429V245.265C1106.65 245.821 1106.43 246.322 1106.04 246.766C1105.65 247.211 1105.15 247.378 1104.54 247.378H1078.79V263.948H1102.81C1103.37 263.948 1103.87 264.17 1104.31 264.559C1104.76 265.004 1104.93 265.505 1104.93 266.061V268.896C1104.93 269.452 1104.7 269.953 1104.31 270.398C1103.92 270.843 1103.42 271.009 1102.81 271.009H1078.79V288.191H1105.2Z" fill="#414042"/>
<path d="M1146.79 240.316C1149.35 240.316 1151.8 240.65 1154.08 241.262C1156.35 241.873 1158.36 242.874 1160.08 244.153C1161.8 245.432 1163.19 247.156 1164.19 249.157C1165.2 251.215 1165.75 253.661 1165.75 256.553C1165.75 260.778 1164.69 264.17 1162.58 266.672C1160.47 269.174 1157.74 270.954 1154.46 272.01L1166.31 292.639C1166.47 292.973 1166.53 293.251 1166.53 293.529C1166.53 294.029 1166.36 294.418 1166.03 294.752C1165.7 295.086 1165.31 295.252 1164.81 295.252H1161.41C1160.36 295.252 1159.58 294.974 1159.08 294.474C1158.58 293.973 1158.25 293.529 1158.02 293.139L1146.62 273.122H1133.11V293.139C1133.11 293.695 1132.89 294.196 1132.5 294.641C1132.06 295.03 1131.56 295.252 1131 295.252H1127.78C1127.22 295.252 1126.72 295.03 1126.28 294.641C1125.89 294.196 1125.66 293.695 1125.66 293.139V242.429C1125.66 241.873 1125.89 241.373 1126.28 240.928C1126.72 240.539 1127.22 240.316 1127.78 240.316H1146.79ZM1133.11 266.061H1146.4C1150.18 266.061 1153.07 265.338 1155.13 263.837C1157.19 262.335 1158.25 259.944 1158.25 256.553C1158.25 253.216 1157.19 250.825 1155.13 249.435C1153.07 248.045 1150.13 247.322 1146.4 247.322H1133.11V266.061Z" fill="#414042"/>
<path d="M1205.78 240.316C1208.34 240.316 1210.79 240.65 1213.07 241.262C1215.35 241.873 1217.35 242.874 1219.07 244.153C1220.8 245.432 1222.19 247.156 1223.19 249.157C1224.19 251.215 1224.74 253.661 1224.74 256.553C1224.74 260.778 1223.69 264.17 1221.57 266.672C1219.46 269.174 1216.74 270.954 1213.46 272.01L1225.3 292.639C1225.47 292.973 1225.52 293.251 1225.52 293.529C1225.52 294.029 1225.35 294.418 1225.02 294.752C1224.69 295.086 1224.3 295.252 1223.8 295.252H1220.41C1219.35 295.252 1218.57 294.974 1218.07 294.474C1217.57 293.973 1217.24 293.529 1217.02 293.139L1205.62 273.122H1192.11V293.139C1192.11 293.695 1191.88 294.196 1191.49 294.641C1191.05 295.03 1190.55 295.252 1189.99 295.252H1186.77C1186.21 295.252 1185.71 295.03 1185.27 294.641C1184.88 294.196 1184.66 293.695 1184.66 293.139V242.429C1184.66 241.873 1184.88 241.373 1185.27 240.928C1185.71 240.539 1186.21 240.316 1186.77 240.316H1205.78ZM1192.11 266.061H1205.39C1209.18 266.061 1212.07 265.338 1214.12 263.837C1216.18 262.335 1217.24 259.944 1217.24 256.553C1217.24 253.216 1216.18 250.825 1214.12 249.435C1212.07 248.045 1209.12 247.322 1205.39 247.322H1192.11V266.061Z" fill="#414042"/>
<path d="M1241.59 260.834C1241.64 257.887 1242.14 255.163 1243.14 252.549C1244.09 249.936 1245.54 247.712 1247.37 245.821C1249.21 243.931 1251.43 242.374 1254.1 241.262C1256.77 240.15 1259.82 239.594 1263.27 239.594C1266.72 239.594 1269.78 240.15 1272.45 241.262C1275.11 242.374 1277.34 243.931 1279.17 245.821C1281.01 247.712 1282.4 249.992 1283.4 252.549C1284.34 255.107 1284.9 257.887 1284.96 260.834C1285.12 265.505 1285.12 270.175 1284.96 274.791C1284.84 277.738 1284.29 280.462 1283.34 283.075C1282.4 285.689 1280.95 287.913 1279.12 289.859C1277.28 291.805 1275.06 293.306 1272.39 294.418C1269.72 295.531 1266.72 296.087 1263.27 296.087C1259.82 296.087 1256.77 295.531 1254.1 294.418C1251.48 293.306 1249.21 291.805 1247.37 289.859C1245.54 287.913 1244.15 285.633 1243.14 283.075C1242.2 280.518 1241.64 277.738 1241.53 274.791C1241.42 270.12 1241.42 265.449 1241.59 260.834ZM1277.45 261.223C1277.34 258.777 1276.95 256.608 1276.23 254.773C1275.5 252.939 1274.56 251.437 1273.28 250.214C1272 248.991 1270.56 248.101 1268.83 247.489C1267.11 246.878 1265.27 246.6 1263.22 246.6C1261.16 246.6 1259.27 246.878 1257.6 247.489C1255.88 248.101 1254.43 248.991 1253.15 250.214C1251.87 251.437 1250.93 252.939 1250.15 254.773C1249.43 256.608 1249.04 258.721 1248.98 261.223C1248.87 263.559 1248.82 265.783 1248.82 267.84C1248.82 269.897 1248.87 272.066 1248.98 274.457C1249.04 276.903 1249.43 279.072 1250.15 280.907C1250.87 282.742 1251.87 284.243 1253.15 285.466C1254.43 286.69 1255.88 287.579 1257.6 288.191C1259.27 288.803 1261.16 289.081 1263.22 289.081C1265.27 289.081 1267.11 288.803 1268.83 288.191C1270.5 287.579 1272 286.69 1273.28 285.466C1274.56 284.243 1275.5 282.742 1276.23 280.907C1276.95 279.072 1277.34 276.959 1277.45 274.457C1277.56 272.122 1277.62 269.897 1277.62 267.84C1277.62 265.783 1277.56 263.559 1277.45 261.223Z" fill="#414042"/>
<path d="M1325.32 240.316C1327.88 240.316 1330.32 240.65 1332.6 241.262C1334.88 241.873 1336.89 242.874 1338.61 244.153C1340.33 245.432 1341.72 247.156 1342.72 249.157C1343.72 251.215 1344.28 253.661 1344.28 256.553C1344.28 260.778 1343.22 264.17 1341.11 266.672C1339 269.174 1336.27 270.954 1332.99 272.01L1344.84 292.639C1345 292.973 1345.06 293.251 1345.06 293.529C1345.06 294.029 1344.89 294.418 1344.56 294.752C1344.22 295.086 1343.84 295.252 1343.34 295.252H1339.94C1338.89 295.252 1338.11 294.974 1337.61 294.474C1337.11 293.973 1336.77 293.529 1336.55 293.139L1325.15 273.122H1311.64V293.139C1311.64 293.695 1311.42 294.196 1311.03 294.641C1310.59 295.03 1310.09 295.252 1309.53 295.252H1306.31C1305.75 295.252 1305.25 295.03 1304.8 294.641C1304.42 294.196 1304.19 293.695 1304.19 293.139V242.429C1304.19 241.873 1304.42 241.373 1304.8 240.928C1305.25 240.539 1305.75 240.316 1306.31 240.316H1325.32ZM1311.7 266.061H1324.99C1328.77 266.061 1331.66 265.338 1333.72 263.837C1335.77 262.335 1336.83 259.944 1336.83 256.553C1336.83 253.216 1335.77 250.825 1333.72 249.435C1331.66 248.045 1328.71 247.322 1324.99 247.322H1311.7V266.061Z" fill="#414042"/>
<path d="M556.05 527.34L548.933 520.279L531.252 537.961L513.516 520.279L506.455 527.34L524.136 545.078L506.455 562.76L513.516 569.877L531.252 552.139L548.933 569.877L556.05 562.76L538.314 545.078L556.05 527.34Z" fill="white" stroke="white" stroke-miterlimit="10"/>
<path d="M430.284 558.478C430.172 565.15 424.223 570.711 416.995 570.711C409.712 570.711 403.707 565.261 403.707 558.478V530.009C403.707 523.337 409.601 517.776 416.995 517.776C424.279 517.776 430.284 523.225 430.284 530.009V558.478Z" fill="white"/>
<path d="M416.995 518.61C409.601 518.61 403.707 524.171 403.707 530.843V559.312C403.707 566.095 409.767 571.545 416.995 571.545C424.279 571.545 430.172 565.984 430.284 559.312V530.843C430.284 524.059 424.223 518.61 416.995 518.61Z" fill="white"/>
<path d="M740.528 596.733H698.217C733.245 593.23 756.763 568.153 756.763 537.627V520.279C756.763 512.605 752.816 505.377 745.143 505.377H730.687C733.356 500.984 735.413 496.147 736.692 490.92L738.304 484.526C739.305 480.634 739.361 476.574 738.527 472.627C737.693 468.679 735.969 465.009 733.467 461.84C730.965 458.67 727.796 456.113 724.182 454.333C720.568 452.554 716.565 451.664 712.506 451.664H663.69L672.753 430.758C673.476 429.145 674.643 427.755 676.144 426.754C677.645 425.753 679.369 425.197 681.148 425.197H706.224C722.792 425.197 737.748 414.744 744.087 398.73L747.145 391.168C748.312 388.499 746.255 385.497 743.475 385.497H681.204C661.577 385.497 643.73 397.674 635.89 416.467L621.212 451.664H609.981C613.706 446.771 615.93 440.933 616.486 434.817C617.042 428.7 615.875 422.528 613.095 417.079C610.315 411.574 606.089 406.959 600.863 403.734C595.636 400.509 589.576 398.786 583.405 398.786H559.942C552.547 398.786 545.263 400.843 538.981 404.735C532.698 408.627 527.583 414.132 524.247 420.749L492.388 484.081C491.276 486.305 489.608 488.14 487.496 489.419C485.383 490.698 482.992 491.421 480.49 491.421H447.798L434.565 482.635C430.173 479.744 425.057 478.187 419.776 478.187H410.324C409.49 478.187 408.656 478.187 407.822 478.243C406.32 472.793 405.209 466.955 404.764 461.172C403.652 445.437 407.822 436.262 417.107 432.648C427.615 428.533 434.231 430.09 441.793 433.204C443.072 433.76 444.573 434.427 446.185 435.15C453.58 438.486 464.199 443.268 476.376 443.268C494.39 443.268 509.235 428.589 512.182 412.353C513.071 407.738 512.904 402.956 511.848 398.396C510.736 393.837 508.679 389.5 505.843 385.775C499.727 377.656 490.053 371.707 477.488 368.093C475.875 367.648 474.152 367.481 472.484 367.648C470.816 367.815 469.148 368.371 467.702 369.149C466.201 369.983 464.922 371.04 463.866 372.374C462.809 373.709 462.031 375.21 461.531 376.822C460.586 380.103 460.975 383.606 462.643 386.553C464.311 389.556 467.035 391.724 470.315 392.669C479.267 395.227 483.381 398.674 485.216 401.121C485.939 402.066 486.495 403.123 486.773 404.235C487.051 405.402 487.106 406.57 486.828 407.738C485.772 413.465 480.323 417.58 476.376 417.58C470.26 417.58 465.923 415.689 459.251 412.742C456.972 411.741 454.47 410.629 451.523 409.406C440.125 404.791 426.281 401.455 407.655 408.739C382.19 418.692 377.631 443.713 379.021 463.007C379.633 471.014 381.134 478.965 383.358 486.694C371.46 495.09 363.676 508.88 363.676 524.504V587.836C363.676 600.903 367.568 613.692 374.851 624.534L390.03 647.165C396.09 656.228 404.319 663.679 413.993 668.795C423.667 673.91 434.398 676.635 445.351 676.635H526.86C524.803 682.251 521.467 687.31 517.186 691.425C512.904 695.595 507.678 698.709 502.007 700.6L457.861 715.223C453.135 716.78 449.076 720.005 446.519 724.231C443.961 728.457 442.96 733.517 443.739 738.41C444.517 743.303 447.075 747.751 450.856 750.976C454.636 754.201 459.474 755.98 464.477 755.98H645.62C650.513 755.98 655.295 754.646 659.464 752.144C663.634 749.642 667.026 746.027 669.25 741.69H698.662C729.631 741.69 758.098 709.885 758.098 660.176V611.857C758.209 602.182 750.258 596.733 740.528 596.733ZM636.836 504.543C634.945 504.543 633.166 505.266 631.832 506.6C630.497 507.935 629.774 509.714 629.774 511.549C629.774 515.163 632.554 518.11 636.002 519.278C641.839 521.335 646.788 525.338 649.957 530.621L652.626 535.013C655.128 539.128 656.406 543.854 656.406 548.636V678.803C656.406 680.749 656.184 682.64 655.795 684.53L645.787 729.458H546.653C556.772 719.06 571.951 694.15 579.902 674.689C587.352 656.339 574.564 650.612 567.225 650.056H539.37L538.925 650.334C537.813 650.168 536.645 650.056 535.478 650.056H445.462C438.902 650.056 432.452 648.444 426.67 645.33C420.888 642.216 415.939 637.768 412.325 632.375L406.432 623.589H474.541V597.122H391.531C390.753 594.064 390.363 590.895 390.363 587.725V524.393C390.363 519.111 392.476 514.107 396.201 510.381C399.927 506.656 405.042 504.543 410.324 504.543H419.609L432.841 513.328C437.234 516.22 442.349 517.776 447.631 517.776H488.218C493 517.776 497.726 516.498 501.84 514.051C505.955 511.604 509.346 508.102 511.626 503.876L515.24 497.259H515.295L547.877 432.481C548.989 430.257 550.656 428.422 552.769 427.143C554.882 425.864 557.273 425.142 559.775 425.142H583.238C585.017 425.142 586.685 425.864 587.964 427.088C589.187 428.311 589.91 430.035 589.91 431.758C589.91 433.538 589.187 435.206 587.964 436.429C586.74 437.652 585.017 438.375 583.238 438.375H580.18C576.621 438.375 573.174 439.376 570.172 441.211C567.17 443.046 564.723 445.715 563.166 448.884L550.879 473.294C550.601 473.794 550.49 474.35 550.545 474.906C550.545 475.462 550.712 476.018 551.046 476.519C551.324 477.019 551.768 477.409 552.269 477.687C552.769 477.965 553.325 478.131 553.881 478.131H712.562L710.95 484.526C709.504 490.253 706.168 495.313 701.498 498.983C696.827 502.597 691.045 504.598 685.151 504.598H636.836V504.543Z" fill="white"/>
<path d="M495.501 600.18C500.338 602.182 504.73 605.073 508.456 608.799L523.356 623.645H474.484V597.178H480.211C485.493 597.178 490.664 598.179 495.501 600.18Z" fill="white"/>
</g>
<defs>
<clipPath id="clip0_688_8844">
<rect width="1480" height="1233" fill="white"/>
</clipPath>
</defs>
</svg>
