<svg width="47" height="46" viewBox="0 0 47 46" fill="none" xmlns="http://www.w3.org/2000/svg">
<path d="M11.4844 1.09289C11.5397 0.901814 11.6322 0.723518 11.7564 0.568189C11.8807 0.41286 12.0344 0.283542 12.2086 0.187627C12.3829 0.0917112 12.5744 0.0310779 12.7721 0.00919175C12.9698 -0.0126944 13.1699 0.00459593 13.3609 0.0600744C14.8375 0.488199 15.9734 1.18664 16.6922 2.14757C17.0292 2.58986 17.2699 3.09779 17.3988 3.63868C17.5277 4.17958 17.5419 4.74146 17.4406 5.2882C17.0906 7.20382 15.3516 8.93664 13.2328 8.93664C11.8016 8.93664 10.5562 8.37101 9.68594 7.9757C9.49375 7.88976 9.32031 7.81007 9.16719 7.74757C8.27969 7.38507 7.49844 7.2007 6.26563 7.68507C5.17969 8.11007 4.68438 9.19757 4.81719 11.0538C4.86719 11.7382 5.00156 12.4288 5.17656 13.0694C5.27188 13.0648 5.37031 13.0616 5.46875 13.0616H6.55781C7.1751 13.0615 7.7786 13.2442 8.29219 13.5866L9.84844 14.6241H13.6922C13.9825 14.6243 14.2672 14.5435 14.5142 14.3909C14.7612 14.2382 14.9608 14.0198 15.0906 13.7601L18.8328 6.27726C19.2222 5.49881 19.8206 4.84414 20.561 4.38659C21.3014 3.92903 22.1546 3.68667 23.025 3.68664H25.7812C26.5067 3.68664 27.2178 3.88865 27.8349 4.27003C28.452 4.65142 28.9507 5.19711 29.2751 5.84596C29.5995 6.49481 29.7369 7.22118 29.6717 7.94369C29.6066 8.6662 29.3415 9.35629 28.9062 9.93664H30.2266L31.9531 5.78039C32.875 3.56164 34.9734 2.12414 37.2797 2.12414H44.5984C44.9266 2.12414 45.1641 2.48351 45.0297 2.79601L44.6734 3.68664C43.9297 5.57726 42.1734 6.81164 40.225 6.81164H37.2781C37.0692 6.81684 36.866 6.88128 36.6923 6.99746C36.5186 7.11365 36.3815 7.27678 36.2969 7.46789L35.2344 9.93664H40.9687C41.4436 9.93671 41.9122 10.045 42.3389 10.2533C42.7657 10.4615 43.1393 10.7643 43.4315 11.1386C43.7237 11.5129 43.9268 11.9489 44.0253 12.4134C44.1238 12.8779 44.1151 13.3588 44 13.8194L43.8094 14.5773C43.6562 15.1913 43.4156 15.7648 43.1016 16.2835H44.8C45.7062 16.2835 46.1672 17.1366 46.1672 18.0429V20.0929C46.1672 23.7007 43.4062 26.6632 39.2922 27.0757H44.2609C45.4016 27.0757 46.3391 27.7163 46.3391 28.8569V34.5632C46.3391 40.4304 42.9937 44.1882 39.3547 44.1882H35.8969C35.6332 44.6965 35.2349 45.1226 34.7455 45.4199C34.2561 45.7172 33.6945 45.8743 33.1219 45.8741H11.8437C11.2571 45.8743 10.6895 45.6656 10.2426 45.2855C9.79566 44.9054 9.49863 44.3787 9.40465 43.7995C9.31067 43.2204 9.42587 42.6268 9.72963 42.1248C10.0334 41.6229 10.5059 41.2455 11.0625 41.0601L16.2469 39.3319C16.9152 39.1095 17.5248 38.7393 18.0304 38.2489C18.536 37.7585 18.9245 37.1604 19.1672 36.4991H9.59375C8.30759 36.499 7.04136 36.1813 5.90746 35.5743C4.77355 34.9673 3.80706 34.0897 3.09375 33.0195L1.31094 30.3476C0.455349 29.0634 -0.000807832 27.5547 1.07396e-06 26.0116V18.5304C1.07396e-06 16.6866 0.912501 15.0569 2.30938 14.0663C2.04334 13.1545 1.87161 12.2179 1.79688 11.271C1.63281 8.99289 2.16719 6.0382 5.15938 4.86476C7.34688 4.00695 8.97031 4.39601 10.3109 4.94289C10.6594 5.08664 10.9563 5.21789 11.2219 5.33507C12.0078 5.68351 12.5125 5.90851 13.2328 5.90851C13.6969 5.90851 14.3375 5.41945 14.4609 4.74601C14.4877 4.6094 14.4844 4.4686 14.4512 4.3334C14.418 4.19821 14.3557 4.07188 14.2688 3.9632C14.0547 3.67726 13.5688 3.27257 12.5188 2.96789C12.1332 2.85611 11.8078 2.59581 11.6142 2.24421C11.4205 1.89261 11.3728 1.47848 11.4844 1.09289ZM23.0266 6.81164C22.7365 6.81179 22.4521 6.8927 22.2054 7.04531C21.9587 7.19792 21.7594 7.4162 21.6297 7.6757L17.8016 15.3288H17.7922L17.3703 16.1101C17.1022 16.6061 16.7049 17.0203 16.2205 17.3089C15.7361 17.5975 15.1826 17.7496 14.6188 17.7491H9.84844C9.23115 17.7493 8.62765 17.5666 8.11406 17.2241L6.55781 16.1866H5.46875C4.84715 16.1866 4.25101 16.4336 3.81147 16.8731C3.37193 17.3126 3.125 17.9088 3.125 18.5304V26.0132C3.12527 26.3875 3.17038 26.7605 3.25938 27.1241H18.75L16.9984 28.8757C16.5631 29.3112 16.0462 29.6566 15.4773 29.8923C14.9084 30.128 14.2986 30.2492 13.6828 30.2491H5.00313L5.69531 31.2866C6.12318 31.9285 6.70285 32.4548 7.3829 32.819C8.06294 33.1831 8.82235 33.3738 9.59375 33.3741H20.1703C20.3078 33.3741 20.4437 33.3866 20.5734 33.4085L20.6281 33.3741H23.9C24.7625 33.4398 26.2672 34.1148 25.3891 36.2819C24.4562 38.5819 22.6703 41.5241 21.4828 42.7491H33.1203L34.2984 37.4444C34.3484 37.221 34.3734 36.9944 34.3734 36.7663V21.3913C34.3734 20.8249 34.2195 20.2692 33.9281 19.7835L33.6172 19.2663C33.2432 18.6429 32.6636 18.1694 31.9781 17.9273C31.5766 17.7866 31.2484 17.4398 31.2484 17.0148C31.2484 16.7951 31.3357 16.5845 31.491 16.4292C31.6463 16.2739 31.8569 16.1866 32.0766 16.1866H37.7453C38.4422 16.1865 39.119 15.9535 39.6682 15.5246C40.2175 15.0957 40.6076 14.4955 40.7766 13.8194L40.9656 13.0616H22.3219C22.2553 13.0615 22.1899 13.0444 22.1319 13.0119C22.0738 12.9794 22.025 12.9326 21.9901 12.8759C21.9552 12.8192 21.9353 12.7546 21.9324 12.6881C21.9295 12.6216 21.9436 12.5555 21.9734 12.496L23.4156 9.61164C23.6017 9.23969 23.8876 8.9269 24.2414 8.70833C24.5952 8.48975 25.0029 8.37403 25.4187 8.37414H25.7812C25.9884 8.37414 26.1872 8.29183 26.3337 8.14531C26.4802 7.9988 26.5625 7.80009 26.5625 7.59289C26.5625 7.38569 26.4802 7.18697 26.3337 7.04046C26.1872 6.89395 25.9884 6.81164 25.7812 6.81164H23.025H23.0266Z" fill="#619AE0"/>
</svg>
